<svg width="400" height="340" viewBox="0 0 400 340" fill="none" xmlns="http://www.w3.org/2000/svg">
<g clip-path="url(#clip0_15_88)">
<path d="M232.999 59.938C240.496 59.938 246.573 52.8355 246.573 44.0741C246.573 35.3127 240.496 28.2102 232.999 28.2102C225.502 28.2102 219.425 35.3127 219.425 44.0741C219.425 52.8355 225.502 59.938 232.999 59.938Z" fill="#F2F2F2"/>
<path d="M338.297 295.377C358.474 277.417 368.11 247.236 362.077 218.446C361.928 217.731 361.769 217.017 361.603 216.305C357.603 199.216 347.708 182.974 333.286 177.513C321.177 172.928 307.959 176.454 295.326 174.631C270.527 171.052 251.3 147.601 237.772 123.048C224.244 98.4951 213.847 71.0116 195.871 50.7272C166.241 17.2919 117.906 10.0933 81.168 31.8571C44.4304 53.6211 21.0289 101.906 22.0269 150.028C23.0249 198.151 47.4692 244.159 82.9684 268.569C96.0094 277.536 111.092 283.889 126.103 281.666C139.128 279.737 150.962 271.558 163.926 269.13C184.307 265.312 204.559 276.082 222.187 288.632C239.815 301.182 256.843 316.057 276.875 321.875C296.326 327.524 320.424 311.287 338.297 295.377Z" fill="#F2F2F2"/>
<path d="M309.309 32.8677C308.866 32.5231 308.419 32.1963 307.977 31.8636C295.192 22.3073 281.488 14.5439 267.149 8.73379L263.824 62.3369H242.747V0.908999C241.42 0.588165 240.083 0.285156 238.746 -3.05176e-05V62.3369H213.698C199.909 62.3369 186.685 55.9352 176.935 44.54C167.185 33.1448 161.707 17.6897 161.707 1.5745C160.365 1.91316 159.033 2.27553 157.701 2.66172V62.3369H137.3L134.133 11.2232C119.397 17.8278 105.408 26.5132 92.4764 37.0861C92.2527 37.2643 92.0291 37.4485 91.8105 37.6267C90.687 38.5476 89.5787 39.4864 88.4755 40.437V244.933H148.601L147.539 227.733L141.692 133.295H259.427L253.581 227.733L252.518 244.933H311.978V34.9353C311.093 34.2342 310.203 33.545 309.309 32.8677ZM157.701 117.699H140.726L137.59 67.0187H157.701V117.699ZM238.746 117.699H210.236V116.695C210.236 116.212 210.155 115.734 209.997 115.288C209.839 114.842 209.607 114.437 209.315 114.096C209.022 113.755 208.675 113.485 208.294 113.301C207.912 113.116 207.503 113.022 207.09 113.023H194.695C194.283 113.023 193.874 113.117 193.493 113.302C193.112 113.486 192.765 113.757 192.474 114.098C192.182 114.439 191.95 114.844 191.793 115.289C191.635 115.735 191.554 116.212 191.554 116.695V117.699H161.707V67.0187H238.746V117.699ZM242.747 117.699V67.0187H263.535L260.398 117.699H242.747Z" fill="#3F3D56"/>
<path d="M-6.10352e-05 258.029C4.41633 264.144 9.19315 269.892 14.2955 275.229L385.704 275.823C390.807 270.486 395.584 264.738 400 258.623L-6.10352e-05 258.029Z" fill="#3F3D56"/>
<path d="M251.864 202.952V253.872C251.865 254.521 252.086 255.144 252.478 255.602C252.871 256.061 253.403 256.319 253.958 256.32H318.524C319.08 256.319 319.612 256.061 320.005 255.602C320.397 255.144 320.618 254.521 320.618 253.872V202.952C320.617 202.304 320.396 201.683 320.004 201.225C319.611 200.766 319.079 200.509 318.524 200.508H253.958C253.404 200.509 252.872 200.766 252.479 201.225C252.087 201.683 251.866 202.304 251.864 202.952Z" fill="#3F3D56"/>
<path d="M253.379 203.586V253.244C253.379 253.591 253.498 253.923 253.707 254.168C253.917 254.414 254.201 254.552 254.498 254.552H317.987C318.284 254.552 318.568 254.414 318.778 254.168C318.987 253.923 319.106 253.591 319.106 253.244V203.586C319.106 203.239 318.988 202.906 318.778 202.66C318.569 202.414 318.284 202.276 317.987 202.275H254.498C254.201 202.276 253.916 202.414 253.707 202.66C253.497 202.906 253.379 203.239 253.379 203.586Z" fill="#F8833E"/>
<path d="M250.514 263.803C250.632 263.976 250.783 264.116 250.954 264.212C251.125 264.308 251.312 264.357 251.502 264.356H320.637C320.826 264.355 321.013 264.306 321.183 264.211C321.354 264.115 321.504 263.977 321.623 263.805C321.742 263.634 321.827 263.433 321.872 263.219C321.916 263.004 321.919 262.78 321.88 262.564L320.807 256.606C320.763 256.363 320.667 256.137 320.529 255.949C320.39 255.76 320.214 255.615 320.015 255.526C319.871 255.46 319.718 255.427 319.564 255.427H252.571C252.416 255.427 252.263 255.46 252.119 255.526C251.921 255.615 251.744 255.76 251.606 255.949C251.468 256.137 251.372 256.363 251.327 256.606L250.254 262.564C250.216 262.78 250.219 263.003 250.264 263.218C250.309 263.432 250.395 263.632 250.514 263.803Z" fill="#2F2E41"/>
<path d="M317.192 257.993H318.825C318.962 257.993 319.073 257.863 319.073 257.703V256.79C319.073 256.63 318.962 256.5 318.825 256.5H317.192C317.055 256.5 316.944 256.63 316.944 256.79V257.703C316.944 257.863 317.055 257.993 317.192 257.993Z" fill="#3F3D56"/>
<path d="M312.933 257.993H314.566C314.703 257.993 314.814 257.863 314.814 257.703V256.79C314.814 256.63 314.703 256.5 314.566 256.5H312.933C312.796 256.5 312.685 256.63 312.685 256.79V257.703C312.685 257.863 312.796 257.993 312.933 257.993Z" fill="#3F3D56"/>
<path d="M308.674 257.993H310.307C310.444 257.993 310.555 257.863 310.555 257.703V256.79C310.555 256.63 310.444 256.5 310.307 256.5H308.674C308.537 256.5 308.426 256.63 308.426 256.79V257.703C308.426 257.863 308.537 257.993 308.674 257.993Z" fill="#3F3D56"/>
<path d="M304.416 257.993H306.049C306.186 257.993 306.297 257.863 306.297 257.703V256.79C306.297 256.63 306.186 256.5 306.049 256.5H304.416C304.279 256.5 304.167 256.63 304.167 256.79V257.703C304.167 257.863 304.279 257.993 304.416 257.993Z" fill="#3F3D56"/>
<path d="M300.157 257.993H301.79C301.927 257.993 302.038 257.863 302.038 257.703V256.79C302.038 256.63 301.927 256.5 301.79 256.5H300.157C300.02 256.5 299.909 256.63 299.909 256.79V257.703C299.909 257.863 300.02 257.993 300.157 257.993Z" fill="#3F3D56"/>
<path d="M295.899 257.993H297.532C297.669 257.993 297.78 257.863 297.78 257.703V256.79C297.78 256.63 297.669 256.5 297.532 256.5H295.899C295.762 256.5 295.65 256.63 295.65 256.79V257.703C295.65 257.863 295.762 257.993 295.899 257.993Z" fill="#3F3D56"/>
<path d="M291.64 257.993H293.273C293.41 257.993 293.521 257.863 293.521 257.703V256.79C293.521 256.63 293.41 256.5 293.273 256.5H291.64C291.503 256.5 291.392 256.63 291.392 256.79V257.703C291.392 257.863 291.503 257.993 291.64 257.993Z" fill="#3F3D56"/>
<path d="M287.382 257.993H289.014C289.152 257.993 289.263 257.863 289.263 257.703V256.79C289.263 256.63 289.152 256.5 289.014 256.5H287.382C287.244 256.5 287.133 256.63 287.133 256.79V257.703C287.133 257.863 287.244 257.993 287.382 257.993Z" fill="#3F3D56"/>
<path d="M283.123 257.993H284.755C284.893 257.993 285.004 257.863 285.004 257.703V256.79C285.004 256.63 284.893 256.5 284.755 256.5H283.123C282.985 256.5 282.874 256.63 282.874 256.79V257.703C282.874 257.863 282.985 257.993 283.123 257.993Z" fill="#3F3D56"/>
<path d="M278.864 257.993H280.496C280.634 257.993 280.745 257.863 280.745 257.703V256.79C280.745 256.63 280.634 256.5 280.496 256.5H278.864C278.726 256.5 278.615 256.63 278.615 256.79V257.703C278.615 257.863 278.726 257.993 278.864 257.993Z" fill="#3F3D56"/>
<path d="M274.605 257.993H276.238C276.375 257.993 276.486 257.863 276.486 257.703V256.79C276.486 256.63 276.375 256.5 276.238 256.5H274.605C274.468 256.5 274.357 256.63 274.357 256.79V257.703C274.357 257.863 274.468 257.993 274.605 257.993Z" fill="#3F3D56"/>
<path d="M270.346 257.993H271.979C272.116 257.993 272.228 257.863 272.228 257.703V256.79C272.228 256.63 272.116 256.5 271.979 256.5H270.346C270.209 256.5 270.098 256.63 270.098 256.79V257.703C270.098 257.863 270.209 257.993 270.346 257.993Z" fill="#3F3D56"/>
<path d="M266.088 257.993H267.721C267.858 257.993 267.969 257.863 267.969 257.703V256.79C267.969 256.63 267.858 256.5 267.721 256.5H266.088C265.951 256.5 265.84 256.63 265.84 256.79V257.703C265.84 257.863 265.951 257.993 266.088 257.993Z" fill="#3F3D56"/>
<path d="M261.829 257.993H263.462C263.599 257.993 263.711 257.863 263.711 257.703V256.79C263.711 256.63 263.599 256.5 263.462 256.5H261.829C261.692 256.5 261.581 256.63 261.581 256.79V257.703C261.581 257.863 261.692 257.993 261.829 257.993Z" fill="#3F3D56"/>
<path d="M257.571 257.993H259.204C259.341 257.993 259.452 257.863 259.452 257.703V256.79C259.452 256.63 259.341 256.5 259.204 256.5H257.571C257.434 256.5 257.323 256.63 257.323 256.79V257.703C257.323 257.863 257.434 257.993 257.571 257.993Z" fill="#3F3D56"/>
<path d="M253.312 257.993H254.945C255.082 257.993 255.193 257.863 255.193 257.703V256.79C255.193 256.63 255.082 256.5 254.945 256.5H253.312C253.175 256.5 253.064 256.63 253.064 256.79V257.703C253.064 257.863 253.175 257.993 253.312 257.993Z" fill="#3F3D56"/>
<path d="M317.242 260.481H318.875C319.012 260.481 319.123 260.352 319.123 260.191V259.278C319.123 259.118 319.012 258.988 318.875 258.988H317.242C317.105 258.988 316.993 259.118 316.993 259.278V260.191C316.993 260.352 317.105 260.481 317.242 260.481Z" fill="#3F3D56"/>
<path d="M312.983 260.481H314.616C314.753 260.481 314.864 260.352 314.864 260.191V259.278C314.864 259.118 314.753 258.988 314.616 258.988H312.983C312.846 258.988 312.735 259.118 312.735 259.278V260.191C312.735 260.352 312.846 260.481 312.983 260.481Z" fill="#3F3D56"/>
<path d="M308.725 260.481H310.358C310.495 260.481 310.606 260.352 310.606 260.191V259.278C310.606 259.118 310.495 258.988 310.358 258.988H308.725C308.588 258.988 308.476 259.118 308.476 259.278V260.191C308.476 260.352 308.588 260.481 308.725 260.481Z" fill="#3F3D56"/>
<path d="M304.466 260.481H306.099C306.236 260.481 306.347 260.352 306.347 260.191V259.278C306.347 259.118 306.236 258.988 306.099 258.988H304.466C304.329 258.988 304.218 259.118 304.218 259.278V260.191C304.218 260.352 304.329 260.481 304.466 260.481Z" fill="#3F3D56"/>
<path d="M300.208 260.481H301.84C301.978 260.481 302.089 260.352 302.089 260.191V259.278C302.089 259.118 301.978 258.988 301.84 258.988H300.208C300.07 258.988 299.959 259.118 299.959 259.278V260.191C299.959 260.352 300.07 260.481 300.208 260.481Z" fill="#3F3D56"/>
<path d="M295.949 260.481H297.582C297.719 260.481 297.83 260.352 297.83 260.191V259.278C297.83 259.118 297.719 258.988 297.582 258.988H295.949C295.812 258.988 295.701 259.118 295.701 259.278V260.191C295.701 260.352 295.812 260.481 295.949 260.481Z" fill="#3F3D56"/>
<path d="M291.69 260.481H293.323C293.46 260.481 293.572 260.352 293.572 260.191V259.278C293.572 259.118 293.46 258.988 293.323 258.988H291.69C291.553 258.988 291.442 259.118 291.442 259.278V260.191C291.442 260.352 291.553 260.481 291.69 260.481Z" fill="#3F3D56"/>
<path d="M287.432 260.481H289.065C289.202 260.481 289.313 260.352 289.313 260.191V259.278C289.313 259.118 289.202 258.988 289.065 258.988H287.432C287.295 258.988 287.183 259.118 287.183 259.278V260.191C287.183 260.352 287.295 260.481 287.432 260.481Z" fill="#3F3D56"/>
<path d="M283.172 260.481H284.805C284.942 260.481 285.054 260.352 285.054 260.191V259.278C285.054 259.118 284.942 258.988 284.805 258.988H283.172C283.035 258.988 282.924 259.118 282.924 259.278V260.191C282.924 260.352 283.035 260.481 283.172 260.481Z" fill="#3F3D56"/>
<path d="M278.914 260.481H280.547C280.684 260.481 280.795 260.352 280.795 260.191V259.278C280.795 259.118 280.684 258.988 280.547 258.988H278.914C278.777 258.988 278.666 259.118 278.666 259.278V260.191C278.666 260.352 278.777 260.481 278.914 260.481Z" fill="#3F3D56"/>
<path d="M274.655 260.481H276.288C276.425 260.481 276.537 260.352 276.537 260.191V259.278C276.537 259.118 276.425 258.988 276.288 258.988H274.655C274.518 258.988 274.407 259.118 274.407 259.278V260.191C274.407 260.352 274.518 260.481 274.655 260.481Z" fill="#3F3D56"/>
<path d="M270.397 260.481H272.03C272.167 260.481 272.278 260.352 272.278 260.191V259.278C272.278 259.118 272.167 258.988 272.03 258.988H270.397C270.26 258.988 270.149 259.118 270.149 259.278V260.191C270.149 260.352 270.26 260.481 270.397 260.481Z" fill="#3F3D56"/>
<path d="M266.138 260.481H267.771C267.908 260.481 268.02 260.352 268.02 260.191V259.278C268.02 259.118 267.908 258.988 267.771 258.988H266.138C266.001 258.988 265.89 259.118 265.89 259.278V260.191C265.89 260.352 266.001 260.481 266.138 260.481Z" fill="#3F3D56"/>
<path d="M261.88 260.481H263.513C263.65 260.481 263.761 260.352 263.761 260.191V259.278C263.761 259.118 263.65 258.988 263.513 258.988H261.88C261.743 258.988 261.632 259.118 261.632 259.278V260.191C261.632 260.352 261.743 260.481 261.88 260.481Z" fill="#3F3D56"/>
<path d="M257.621 260.481H259.254C259.391 260.481 259.502 260.352 259.502 260.191V259.278C259.502 259.118 259.391 258.988 259.254 258.988H257.621C257.484 258.988 257.373 259.118 257.373 259.278V260.191C257.373 260.352 257.484 260.481 257.621 260.481Z" fill="#3F3D56"/>
<path d="M253.362 260.481H254.995C255.132 260.481 255.243 260.352 255.243 260.191V259.278C255.243 259.118 255.132 258.988 254.995 258.988H253.362C253.225 258.988 253.114 259.118 253.114 259.278V260.191C253.114 260.352 253.225 260.481 253.362 260.481Z" fill="#3F3D56"/>
<path d="M281.895 263.468H298.434C298.571 263.468 298.682 263.338 298.682 263.177V262.264C298.682 262.104 298.571 261.974 298.434 261.974H281.895C281.758 261.974 281.647 262.104 281.647 262.264V263.177C281.647 263.338 281.758 263.468 281.895 263.468Z" fill="#3F3D56"/>
<path d="M264.374 213.139H262.928C262.49 213.139 262.134 213.555 262.134 214.067C262.134 214.579 262.49 214.994 262.928 214.994H264.374C264.812 214.994 265.167 214.579 265.167 214.067C265.167 213.555 264.812 213.139 264.374 213.139Z" fill="white"/>
<path d="M280.907 213.139H279.462C279.024 213.139 278.668 213.555 278.668 214.067C278.668 214.579 279.024 214.994 279.462 214.994H280.907C281.346 214.994 281.701 214.579 281.701 214.067C281.701 213.555 281.346 213.139 280.907 213.139Z" fill="white"/>
<path d="M285.592 213.139H284.147C283.708 213.139 283.353 213.555 283.353 214.067C283.353 214.579 283.708 214.994 284.147 214.994H285.592C286.031 214.994 286.386 214.579 286.386 214.067C286.386 213.555 286.031 213.139 285.592 213.139Z" fill="white"/>
<path d="M276.411 212.985H267.426C266.987 212.985 266.632 213.4 266.632 213.912C266.632 214.425 266.987 214.84 267.426 214.84H276.411C276.849 214.84 277.204 214.425 277.204 213.912C277.204 213.4 276.849 212.985 276.411 212.985Z" fill="white"/>
<path d="M298.456 212.985H289.471C289.032 212.985 288.677 213.4 288.677 213.912C288.677 214.425 289.032 214.84 289.471 214.84H298.456C298.894 214.84 299.249 214.425 299.249 213.912C299.249 213.4 298.894 212.985 298.456 212.985Z" fill="white"/>
<path d="M268.783 217.326H267.337C266.899 217.326 266.543 217.741 266.543 218.254C266.543 218.766 266.899 219.181 267.337 219.181H268.783C269.221 219.181 269.576 218.766 269.576 218.254C269.576 217.741 269.221 217.326 268.783 217.326Z" fill="white"/>
<path d="M285.316 217.326H283.87C283.432 217.326 283.077 217.741 283.077 218.254C283.077 218.766 283.432 219.181 283.87 219.181H285.316C285.754 219.181 286.11 218.766 286.11 218.254C286.11 217.741 285.754 217.326 285.316 217.326Z" fill="white"/>
<path d="M290.001 217.326H288.556C288.117 217.326 287.762 217.741 287.762 218.254C287.762 218.766 288.117 219.181 288.556 219.181H290.001C290.44 219.181 290.795 218.766 290.795 218.254C290.795 217.741 290.44 217.326 290.001 217.326Z" fill="white"/>
<path d="M280.819 217.171H271.834C271.396 217.171 271.04 217.587 271.04 218.099C271.04 218.611 271.396 219.026 271.834 219.026H280.819C281.257 219.026 281.612 218.611 281.612 218.099C281.612 217.587 281.257 217.171 280.819 217.171Z" fill="white"/>
<path d="M302.864 217.171H293.879C293.441 217.171 293.085 217.587 293.085 218.099C293.085 218.611 293.441 219.026 293.879 219.026H302.864C303.302 219.026 303.658 218.611 303.658 218.099C303.658 217.587 303.302 217.171 302.864 217.171Z" fill="white"/>
<path d="M273.192 221.513H271.746C271.308 221.513 270.953 221.928 270.953 222.44C270.953 222.952 271.308 223.368 271.746 223.368H273.192C273.63 223.368 273.986 222.952 273.986 222.44C273.986 221.928 273.63 221.513 273.192 221.513Z" fill="white"/>
<path d="M289.725 221.513H288.28C287.841 221.513 287.486 221.928 287.486 222.44C287.486 222.952 287.841 223.368 288.28 223.368H289.725C290.164 223.368 290.519 222.952 290.519 222.44C290.519 221.928 290.164 221.513 289.725 221.513Z" fill="white"/>
<path d="M294.41 221.513H292.964C292.526 221.513 292.17 221.928 292.17 222.44C292.17 222.952 292.526 223.368 292.964 223.368H294.41C294.848 223.368 295.203 222.952 295.203 222.44C295.203 221.928 294.848 221.513 294.41 221.513Z" fill="white"/>
<path d="M285.228 221.358H276.243C275.805 221.358 275.449 221.773 275.449 222.286C275.449 222.798 275.805 223.213 276.243 223.213H285.228C285.666 223.213 286.022 222.798 286.022 222.286C286.022 221.773 285.666 221.358 285.228 221.358Z" fill="white"/>
<path d="M307.273 221.358H298.288C297.85 221.358 297.495 221.773 297.495 222.286C297.495 222.798 297.85 223.213 298.288 223.213H307.273C307.711 223.213 308.067 222.798 308.067 222.286C308.067 221.773 307.711 221.358 307.273 221.358Z" fill="white"/>
<path d="M277.6 225.699H276.155C275.716 225.699 275.361 226.115 275.361 226.627C275.361 227.139 275.716 227.554 276.155 227.554H277.6C278.039 227.554 278.394 227.139 278.394 226.627C278.394 226.115 278.039 225.699 277.6 225.699Z" fill="white"/>
<path d="M294.135 225.699H292.689C292.251 225.699 291.895 226.115 291.895 226.627C291.895 227.139 292.251 227.554 292.689 227.554H294.135C294.573 227.554 294.928 227.139 294.928 226.627C294.928 226.115 294.573 225.699 294.135 225.699Z" fill="white"/>
<path d="M298.819 225.699H297.373C296.935 225.699 296.58 226.115 296.58 226.627C296.58 227.139 296.935 227.554 297.373 227.554H298.819C299.257 227.554 299.613 227.139 299.613 226.627C299.613 226.115 299.257 225.699 298.819 225.699Z" fill="white"/>
<path d="M289.637 225.545H280.652C280.214 225.545 279.859 225.96 279.859 226.472C279.859 226.985 280.214 227.4 280.652 227.4H289.637C290.076 227.4 290.431 226.985 290.431 226.472C290.431 225.96 290.076 225.545 289.637 225.545Z" fill="white"/>
<path d="M280.907 242.347H279.462C279.024 242.347 278.668 242.763 278.668 243.275C278.668 243.787 279.024 244.202 279.462 244.202H280.907C281.346 244.202 281.701 243.787 281.701 243.275C281.701 242.763 281.346 242.347 280.907 242.347Z" fill="white"/>
<path d="M285.592 242.347H284.147C283.708 242.347 283.353 242.763 283.353 243.275C283.353 243.787 283.708 244.202 284.147 244.202H285.592C286.031 244.202 286.386 243.787 286.386 243.275C286.386 242.763 286.031 242.347 285.592 242.347Z" fill="white"/>
<path d="M298.456 242.502H289.471C289.032 242.502 288.677 242.917 288.677 243.43C288.677 243.942 289.032 244.357 289.471 244.357H298.456C298.894 244.357 299.249 243.942 299.249 243.43C299.249 242.917 298.894 242.502 298.456 242.502Z" fill="white"/>
<path d="M264.374 242.347H262.928C262.49 242.347 262.134 242.763 262.134 243.275C262.134 243.787 262.49 244.202 262.928 244.202H264.374C264.812 244.202 265.167 243.787 265.167 243.275C265.167 242.763 264.812 242.347 264.374 242.347Z" fill="white"/>
<path d="M276.411 242.502H267.426C266.987 242.502 266.632 242.917 266.632 243.43C266.632 243.942 266.987 244.357 267.426 244.357H276.411C276.849 244.357 277.204 243.942 277.204 243.43C277.204 242.917 276.849 242.502 276.411 242.502Z" fill="white"/>
<path d="M268.783 238.161H267.337C266.899 238.161 266.543 238.576 266.543 239.088C266.543 239.6 266.899 240.016 267.337 240.016H268.783C269.221 240.016 269.576 239.6 269.576 239.088C269.576 238.576 269.221 238.161 268.783 238.161Z" fill="white"/>
<path d="M285.316 238.161H283.87C283.432 238.161 283.077 238.576 283.077 239.088C283.077 239.6 283.432 240.016 283.87 240.016H285.316C285.754 240.016 286.11 239.6 286.11 239.088C286.11 238.576 285.754 238.161 285.316 238.161Z" fill="white"/>
<path d="M290.001 238.161H288.556C288.117 238.161 287.762 238.576 287.762 239.088C287.762 239.6 288.117 240.016 288.556 240.016H290.001C290.44 240.016 290.795 239.6 290.795 239.088C290.795 238.576 290.44 238.161 290.001 238.161Z" fill="white"/>
<path d="M280.819 238.315H271.834C271.396 238.315 271.04 238.731 271.04 239.243C271.04 239.755 271.396 240.17 271.834 240.17H280.819C281.257 240.17 281.612 239.755 281.612 239.243C281.612 238.731 281.257 238.315 280.819 238.315Z" fill="white"/>
<path d="M273.192 233.974H271.746C271.308 233.974 270.953 234.389 270.953 234.902C270.953 235.414 271.308 235.829 271.746 235.829H273.192C273.63 235.829 273.986 235.414 273.986 234.902C273.986 234.389 273.63 233.974 273.192 233.974Z" fill="white"/>
<path d="M289.725 233.974H288.28C287.841 233.974 287.486 234.389 287.486 234.902C287.486 235.414 287.841 235.829 288.28 235.829H289.725C290.164 235.829 290.519 235.414 290.519 234.902C290.519 234.389 290.164 233.974 289.725 233.974Z" fill="white"/>
<path d="M294.41 233.974H292.964C292.526 233.974 292.17 234.389 292.17 234.902C292.17 235.414 292.526 235.829 292.964 235.829H294.41C294.848 235.829 295.203 235.414 295.203 234.902C295.203 234.389 294.848 233.974 294.41 233.974Z" fill="white"/>
<path d="M285.228 234.129H276.243C275.805 234.129 275.449 234.544 275.449 235.056C275.449 235.568 275.805 235.984 276.243 235.984H285.228C285.666 235.984 286.022 235.568 286.022 235.056C286.022 234.544 285.666 234.129 285.228 234.129Z" fill="white"/>
<path d="M277.6 229.787H276.155C275.716 229.787 275.361 230.203 275.361 230.715C275.361 231.227 275.716 231.642 276.155 231.642H277.6C278.039 231.642 278.394 231.227 278.394 230.715C278.394 230.203 278.039 229.787 277.6 229.787Z" fill="white"/>
<path d="M294.135 229.787H292.689C292.251 229.787 291.895 230.203 291.895 230.715C291.895 231.227 292.251 231.642 292.689 231.642H294.135C294.573 231.642 294.928 231.227 294.928 230.715C294.928 230.203 294.573 229.787 294.135 229.787Z" fill="white"/>
<path d="M298.819 229.787H297.373C296.935 229.787 296.58 230.203 296.58 230.715C296.58 231.227 296.935 231.642 297.373 231.642H298.819C299.257 231.642 299.613 231.227 299.613 230.715C299.613 230.203 299.257 229.787 298.819 229.787Z" fill="white"/>
<path d="M289.637 229.942H280.652C280.214 229.942 279.859 230.357 279.859 230.869C279.859 231.382 280.214 231.797 280.652 231.797H289.637C290.076 231.797 290.431 231.382 290.431 230.869C290.431 230.357 290.076 229.942 289.637 229.942Z" fill="white"/>
<path d="M256.687 291.414L249.901 278.877L271.203 259.031L279.995 247.646C281.138 246.167 282.592 245.065 284.213 244.448C285.835 243.832 287.566 243.724 289.234 244.134C290.902 244.545 292.449 245.46 293.72 246.788C294.991 248.116 295.941 249.811 296.476 251.703C297.268 254.507 297.098 257.56 296.001 260.22C294.903 262.879 292.964 264.936 290.594 265.957L276.69 271.943L256.687 291.414Z" fill="#FFB6B6"/>
<path d="M97.4504 200.51V261.445H133.977V200.51C133.978 200.072 133.858 199.645 133.636 199.292C133.413 198.939 133.1 198.679 132.742 198.549C132.573 198.484 132.396 198.452 132.218 198.454H99.2144C98.9831 198.454 98.7539 198.507 98.54 198.61C98.3261 198.713 98.1317 198.864 97.9679 199.055C97.804 199.246 97.674 199.473 97.5852 199.722C97.4964 199.972 97.4506 200.24 97.4504 200.51ZM111.705 221.447C111.715 220.246 112.13 219.098 112.86 218.252C113.59 217.407 114.577 216.932 115.604 216.932C116.632 216.932 117.619 217.407 118.349 218.252C119.079 219.098 119.494 220.246 119.504 221.447V228.518C119.498 229.722 119.085 230.875 118.355 231.725C117.624 232.575 116.635 233.051 115.604 233.051C114.574 233.051 113.585 232.575 112.854 231.725C112.124 230.875 111.711 229.722 111.705 228.518V221.447Z" fill="#2F2E41"/>
<path d="M97.3387 259.496V265.372C97.3395 265.677 97.443 265.969 97.6267 266.184C97.8103 266.4 98.0594 266.522 98.3198 266.525H133.108C133.369 266.523 133.618 266.401 133.802 266.185C133.986 265.969 134.089 265.677 134.089 265.372V259.496H97.3387Z" fill="#3F3D56"/>
<path d="M39.9888 108.704V219.962C39.9898 221.38 40.4721 222.739 41.33 223.742C42.1878 224.745 43.351 225.308 44.5642 225.309H185.638C186.852 225.308 188.015 224.745 188.873 223.742C189.73 222.739 190.213 221.38 190.214 219.962V108.704C190.211 107.287 189.728 105.93 188.87 104.929C188.013 103.928 186.85 103.364 185.638 103.363H44.5642C43.3521 103.364 42.19 103.928 41.3324 104.929C40.4749 105.93 39.9917 107.287 39.9888 108.704Z" fill="#3F3D56"/>
<path d="M43.2983 110.088V218.59C43.2995 219.347 43.5574 220.073 44.0158 220.609C44.4741 221.145 45.0954 221.446 45.7436 221.447H184.464C185.112 221.446 185.734 221.145 186.192 220.609C186.65 220.073 186.908 219.347 186.909 218.59V110.088C186.909 109.33 186.652 108.602 186.193 108.065C185.735 107.529 185.113 107.226 184.464 107.224H45.7436C45.0947 107.226 44.4727 107.529 44.0143 108.065C43.5559 108.602 43.2984 109.33 43.2983 110.088Z" fill="white"/>
<path d="M69.0424 266.126C69.1836 266.333 69.3631 266.5 69.5674 266.614C69.7717 266.729 69.9954 266.787 70.2219 266.786H152.751C152.977 266.786 153.2 266.727 153.404 266.613C153.607 266.499 153.787 266.334 153.929 266.129C154.071 265.924 154.173 265.685 154.226 265.429C154.279 265.172 154.282 264.905 154.236 264.647L152.955 257.535C152.902 257.245 152.787 256.975 152.622 256.75C152.457 256.525 152.246 256.352 152.009 256.246C151.838 256.167 151.655 256.127 151.47 256.127H71.4979C71.3135 256.127 71.1307 256.167 70.959 256.246C70.7219 256.352 70.5112 256.525 70.346 256.75C70.1808 256.975 70.0665 257.245 70.0134 257.535L68.7323 264.647C68.6867 264.905 68.6909 265.172 68.7446 265.428C68.7982 265.684 68.9 265.922 69.0424 266.126Z" fill="#2F2E41"/>
<path d="M179.962 122.171H50.162C50.0271 122.168 49.8987 122.102 49.8044 121.99C49.71 121.877 49.6572 121.725 49.6572 121.568C49.6572 121.41 49.71 121.259 49.8044 121.146C49.8987 121.033 50.0271 120.968 50.162 120.965H179.962C180.097 120.968 180.225 121.033 180.32 121.146C180.414 121.259 180.467 121.41 180.467 121.568C180.467 121.725 180.414 121.877 180.32 121.99C180.225 122.102 180.097 122.168 179.962 122.171Z" fill="#3F3D56"/>
<path d="M58.9976 117.884C60.6683 117.884 62.0227 116.266 62.0227 114.27C62.0227 112.274 60.6683 110.656 58.9976 110.656C57.327 110.656 55.9726 112.274 55.9726 114.27C55.9726 116.266 57.327 117.884 58.9976 117.884Z" fill="#3F3D56"/>
<path d="M69.4479 117.884C71.1186 117.884 72.473 116.266 72.473 114.27C72.473 112.274 71.1186 110.656 69.4479 110.656C67.7772 110.656 66.4229 112.274 66.4229 114.27C66.4229 116.266 67.7772 117.884 69.4479 117.884Z" fill="#3F3D56"/>
<path d="M79.8979 117.884C81.5686 117.884 82.923 116.266 82.923 114.27C82.923 112.274 81.5686 110.656 79.8979 110.656C78.2272 110.656 76.8729 112.274 76.8729 114.27C76.8729 116.266 78.2272 117.884 79.8979 117.884Z" fill="#3F3D56"/>
<path d="M173.669 111.55H166.247C166.1 111.554 165.961 111.625 165.858 111.748C165.756 111.87 165.698 112.035 165.698 112.206C165.698 112.378 165.756 112.543 165.858 112.665C165.961 112.788 166.1 112.859 166.247 112.863H173.669C173.817 112.861 173.958 112.79 174.062 112.667C174.165 112.545 174.223 112.379 174.223 112.206C174.223 112.034 174.165 111.868 174.062 111.745C173.958 111.623 173.817 111.552 173.669 111.55Z" fill="#3F3D56"/>
<path d="M173.669 114.016H166.247C166.1 114.019 165.96 114.09 165.858 114.213C165.755 114.336 165.698 114.5 165.698 114.672C165.698 114.844 165.755 115.009 165.858 115.131C165.96 115.254 166.1 115.325 166.247 115.329H173.669C173.817 115.326 173.958 115.256 174.062 115.134C174.166 115.011 174.224 114.845 174.224 114.672C174.224 114.499 174.166 114.333 174.062 114.211C173.958 114.088 173.817 114.018 173.669 114.016Z" fill="#3F3D56"/>
<path d="M173.669 116.481H166.247C166.1 116.485 165.961 116.556 165.858 116.679C165.756 116.802 165.698 116.966 165.698 117.138C165.698 117.309 165.756 117.474 165.858 117.597C165.961 117.719 166.1 117.79 166.247 117.794H173.669C173.817 117.792 173.958 117.722 174.062 117.599C174.165 117.476 174.223 117.31 174.223 117.138C174.223 116.965 174.165 116.8 174.062 116.677C173.958 116.554 173.817 116.484 173.669 116.481Z" fill="#3F3D56"/>
<path d="M352.607 262.075C352.831 262.837 353.256 263.497 353.821 263.959C354.386 264.421 355.061 264.663 355.751 264.648L369.218 264.243C369.913 264.227 370.584 263.949 371.132 263.45C371.68 262.952 372.075 262.259 372.259 261.476L374.165 237.659C374.841 238.017 375.577 238.194 376.319 238.176C376.964 238.157 377.599 237.99 378.189 237.684C378.778 237.378 379.31 236.94 379.755 236.394C380.199 235.847 380.547 235.204 380.779 234.501C381.011 233.797 381.122 233.047 381.106 232.294C381.09 231.54 380.947 230.798 380.685 230.109C380.423 229.42 380.048 228.798 379.581 228.278C379.113 227.759 378.563 227.352 377.961 227.081C377.359 226.81 376.717 226.681 376.073 226.699C375.776 226.698 375.48 226.734 375.19 226.807C374.874 226.408 374.491 226.091 374.064 225.875C373.637 225.66 373.177 225.552 372.712 225.557L351.996 226.183C351.824 226.19 351.653 226.215 351.485 226.257C351.03 226.356 350.599 226.567 350.221 226.877C349.842 227.187 349.525 227.588 349.29 228.053C349.056 228.519 348.909 229.037 348.86 229.574C348.811 230.111 348.861 230.654 349.007 231.167L352.607 262.075ZM374.555 236.042L375.912 230.366C376.066 229.71 376.069 229.019 375.922 228.361C375.988 228.361 376.046 228.324 376.112 228.324C377.042 228.302 377.941 228.711 378.613 229.463C379.285 230.214 379.675 231.246 379.696 232.333C379.718 233.42 379.37 234.472 378.729 235.26C378.088 236.047 377.206 236.505 376.276 236.534C375.675 236.555 375.08 236.385 374.555 236.042Z" fill="#2F2E41"/>
<path d="M351.484 226.257C351.925 229.206 356.888 231.279 362.854 230.919C368.341 230.624 372.827 228.372 373.649 225.703C373.345 225.598 373.029 225.549 372.712 225.557L351.995 226.182C351.823 226.19 351.652 226.215 351.484 226.257Z" fill="#3F3D56"/>
<path d="M363.948 248.987C363.976 248.979 364.002 248.966 364.025 248.948L366.95 246.71C366.985 246.684 367.014 246.647 367.034 246.603C367.055 246.56 367.065 246.511 367.065 246.462C367.065 246.413 367.055 246.364 367.035 246.321C367.014 246.277 366.985 246.241 366.95 246.214L363.91 243.887C363.882 243.865 363.851 243.85 363.818 243.843C363.785 243.835 363.751 243.835 363.719 243.843C363.686 243.851 363.655 243.867 363.627 243.889C363.599 243.911 363.576 243.939 363.557 243.971C363.539 244.004 363.526 244.041 363.52 244.079C363.514 244.118 363.514 244.157 363.521 244.195C363.528 244.234 363.541 244.27 363.56 244.302C363.579 244.334 363.603 244.362 363.632 244.383L366.347 246.462L363.747 248.451C363.697 248.489 363.66 248.547 363.642 248.615C363.625 248.682 363.629 248.754 363.653 248.819C363.677 248.883 363.72 248.935 363.774 248.966C363.828 248.997 363.89 249.005 363.948 248.987Z" fill="#F8833E"/>
<path d="M359.329 249.236C359.378 249.222 359.422 249.19 359.456 249.146C359.489 249.102 359.511 249.047 359.518 248.989C359.525 248.93 359.517 248.87 359.494 248.817C359.472 248.764 359.437 248.72 359.393 248.691L356.697 246.884L359.303 244.622C359.329 244.599 359.352 244.57 359.369 244.536C359.386 244.503 359.397 244.466 359.402 244.427C359.407 244.389 359.405 244.349 359.397 244.312C359.389 244.274 359.375 244.238 359.355 244.207C359.335 244.176 359.31 244.149 359.281 244.129C359.253 244.109 359.221 244.096 359.188 244.09C359.155 244.085 359.121 244.087 359.089 244.096C359.057 244.106 359.026 244.122 359 244.146L356.082 246.678C356.048 246.708 356.021 246.746 356.003 246.791C355.985 246.836 355.977 246.885 355.98 246.934C355.982 246.983 355.995 247.031 356.018 247.073C356.04 247.115 356.071 247.15 356.107 247.174L359.14 249.206C359.197 249.244 359.265 249.255 359.329 249.236Z" fill="#F8833E"/>
<path d="M363.658 250.948C363.682 250.941 363.706 250.929 363.727 250.913C363.756 250.893 363.781 250.866 363.8 250.835C363.82 250.803 363.834 250.768 363.842 250.73C363.85 250.692 363.852 250.653 363.846 250.614C363.841 250.575 363.83 250.538 363.812 250.505L359.666 242.539C359.631 242.472 359.575 242.423 359.509 242.405C359.444 242.386 359.375 242.399 359.317 242.44C359.26 242.481 359.218 242.547 359.202 242.623C359.186 242.7 359.197 242.781 359.232 242.848L363.378 250.814C363.406 250.869 363.449 250.911 363.499 250.935C363.549 250.959 363.605 250.963 363.658 250.948Z" fill="#F8833E"/>
<path d="M130.571 154.967H108.105C107.189 154.967 106.446 155.836 106.446 156.907V159.472C106.446 160.543 107.189 161.411 108.105 161.411H130.571C131.487 161.411 132.23 160.543 132.23 159.472V156.907C132.23 155.836 131.487 154.967 130.571 154.967Z" fill="#F8833E"/>
<path d="M143.666 167.855H95.0104C94.094 167.855 93.351 168.723 93.351 169.794V172.359C93.351 173.43 94.094 174.299 95.0104 174.299H143.666C144.582 174.299 145.325 173.43 145.325 172.359V169.794C145.325 168.723 144.582 167.855 143.666 167.855Z" fill="#E6E6E6"/>
<path d="M143.666 180.743H95.0104C94.094 180.743 93.351 181.611 93.351 182.682V185.247C93.351 186.318 94.094 187.186 95.0104 187.186H143.666C144.582 187.186 145.325 186.318 145.325 185.247V182.682C145.325 181.611 144.582 180.743 143.666 180.743Z" fill="#E6E6E6"/>
<path d="M147.79 223.898L147.901 224.305L147.906 224.319L151.224 236.105L155.04 249.688L162.219 275.213L162.289 279.178V279.191L162.822 311.087L161.344 315.411L163.008 322.501C163.008 322.501 162.242 311.784 158.137 317.938C155.811 321.436 153.091 325.014 150.858 328.369C154.112 329.908 157.417 331.3 160.775 332.545C161.5 332.816 162.231 333.073 162.962 333.331C163.118 333.385 163.275 333.439 163.431 333.493C174.562 337.34 186.069 339.502 197.671 339.925C198.274 339.946 198.866 339.959 199.44 339.973C199.643 339.98 199.84 339.986 200.037 339.986C200.687 339.993 201.33 340 201.98 340C203.29 340 204.595 339.977 205.894 339.932C215.509 339.616 225.068 338.105 234.41 335.425C234.346 330.918 234.172 325.652 233.923 320.026C233.807 317.268 231.203 314.279 231.046 311.391C230.936 309.222 233.273 307.182 233.151 304.979C232.363 291.417 231.377 296.623 230.646 287.019C230.571 286.077 230.501 285.176 230.437 284.315C229.968 278.147 229.643 274.291 229.643 274.291L232.763 251.308L237.663 215.223L237.286 214.498L236.863 214.254L211.015 199.302L209.612 195.1C209.203 193.889 208.493 192.849 207.575 192.114C206.656 191.378 205.57 190.98 204.456 190.972L187.429 190.891C186.546 190.886 185.674 191.128 184.886 191.596C184.098 192.064 183.417 192.745 182.9 193.582L178.289 201.044L147.79 223.898Z" fill="#3F3D56"/>
<path d="M166.146 269.533L162.289 279.178L159.656 285.766L155.127 313.48L152.859 316.293L150.916 306.335L130.582 311.612C129.915 307.281 130.404 311.758 129.992 307.007C130.108 306.871 130.23 306.736 130.352 306.6C130.676 306.248 130.949 305.916 130.943 305.597C130.711 289.209 131.407 261.318 137.218 244.421C138.128 241.663 139.328 239.047 140.791 236.634C140.907 236.451 141.017 236.268 141.127 236.085C143.806 231.7 145.5 227.382 147.901 224.312V224.305C147.916 224.291 147.929 224.275 147.941 224.258C147.95 224.253 147.958 224.246 147.964 224.237L164.458 214.017L165.165 237.251L165.67 253.951L166.146 269.533Z" fill="#3F3D56"/>
<path d="M225.618 272.272L230.435 284.318L232.117 288.514L236.645 316.225L238.905 319.031L240.852 309.076L241.767 308.857L258.268 304.863L263.078 322.714C264.162 320.603 264.589 318.12 264.287 315.684C263.985 313.247 262.972 311.007 261.42 309.343C261.091 308.996 260.818 308.657 260.825 308.338C261.099 289.062 260.09 253.865 250.979 239.378C248.086 234.781 246.35 230.202 243.824 227.003C243.816 226.994 243.816 226.985 243.808 226.985L237.661 215.222L237.286 214.5L236.864 214.253L225.618 272.272Z" fill="#3F3D56"/>
<path d="M196.435 185.228C208.945 185.228 219.087 173.375 219.087 158.754C219.087 144.133 208.945 132.28 196.435 132.28C183.924 132.28 173.782 144.133 173.782 158.754C173.782 173.375 183.924 185.228 196.435 185.228Z" fill="#FFB6B6"/>
<path d="M227.052 140.262C226.876 140.043 226.665 139.867 226.43 139.746C226.195 139.624 225.941 139.56 225.684 139.555L226.025 138.45C226.136 138.102 226.166 137.726 226.112 137.36C226.058 136.993 225.921 136.651 225.716 136.367C225.511 136.082 225.246 135.867 224.946 135.743C224.647 135.618 224.324 135.589 224.012 135.658L222.771 135.937L222.888 134.968C222.933 134.608 222.897 134.24 222.783 133.9C222.669 133.561 222.482 133.262 222.239 133.033C221.996 132.804 221.707 132.653 221.399 132.594C221.091 132.536 220.776 132.572 220.484 132.699C220.218 132.821 219.932 132.872 219.647 132.849C219.362 132.825 219.085 132.727 218.836 132.562C218.587 132.402 218.37 132.181 218.202 131.913C218.033 131.645 217.917 131.337 217.86 131.011L217.428 128.575L217.382 128.445C215.278 124.345 211.231 121.363 206.28 120.269C201.872 119.289 197.353 119.788 192.996 120.258C191.267 120.448 189.315 120.662 187.688 121.826C186.306 122.824 185.136 124.821 185.375 126.835C181.079 125.296 176.474 128.368 174.191 132.241C171.486 136.852 171.044 142.627 170.973 147.142C170.78 157.825 172.666 166.565 176.565 173.124C176.85 173.599 176.921 174.591 177.485 174.924L177.368 174.704C177.999 175.073 178.639 175.667 178.4 176.303C177.714 178.133 182.274 182.179 185.487 183.515C191.349 185.957 199.142 185.749 204.622 184.87L204.815 183.355C206.793 183.04 208.186 182.44 208.577 181.501C209.269 180.812 209.859 180.194 210.372 179.624L210.377 179.618C210.387 179.606 210.408 179.588 210.418 179.576C212.894 176.802 213.468 175.221 213.727 172.815C213.976 170.456 213.534 168.062 213.082 165.905C222.609 167.628 209.33 154.046 218.206 151.42C218.308 151.383 218.411 151.354 218.516 151.331C218.775 151.26 219.035 151.188 219.284 151.105C220.485 150.724 221.634 150.15 222.7 149.4C225.181 147.635 225.999 145.295 227.281 142.657C227.465 142.281 227.543 141.846 227.502 141.416C227.461 140.985 227.303 140.581 227.052 140.262Z" fill="#2F2E41"/>
<path d="M276.552 274.157C276.547 275.197 276.537 276.652 276.496 278.453C276.491 278.702 276.486 278.958 276.481 279.219C276.415 282.528 276.349 285.303 276.242 288.386C276.237 288.6 276.232 288.808 276.222 289.022C276.079 293.324 275.856 298.332 275.469 306.264C274.752 320.916 273.502 308.278 272.246 313.418C272.185 313.673 272.119 313.976 272.058 314.333C271.868 315.626 271.547 316.888 271.102 318.093C270.436 318.557 269.75 319.002 269.074 319.448C267.147 320.702 265.19 321.908 263.217 323.054C262.109 323.696 260.996 324.326 259.877 324.932C259.699 325.027 259.527 325.122 259.354 325.211C253.626 328.307 247.724 330.939 241.688 333.089C240.508 333.505 239.334 333.909 238.144 334.284C236.904 334.688 235.663 335.068 234.408 335.424C225.066 338.105 215.508 339.616 205.893 339.934C204.597 339.981 203.29 339.999 201.979 339.999C201.328 339.999 200.687 339.993 200.037 339.987C199.838 339.987 199.64 339.981 199.442 339.975C198.867 339.958 198.272 339.946 197.673 339.928C186.071 339.505 174.564 337.343 163.434 333.493L162.961 333.333C162.229 333.072 161.502 332.816 160.775 332.543C157.419 331.301 154.113 329.911 150.856 328.372C148.37 327.202 145.913 325.946 143.485 324.605C143.463 324.598 143.442 324.586 143.424 324.569C142.915 324.296 142.402 324.011 141.894 323.72C141.828 323.678 141.756 323.637 141.685 323.595C139.789 322.514 137.913 321.381 136.057 320.197C134.497 316.008 132.301 315.206 130.938 311.522C130.542 310.428 130.255 309.283 130.084 308.112C130.084 308.1 130.079 308.088 130.079 308.07C130.221 310.28 129.474 304.149 130.074 308.047C130.069 307.975 130.064 307.898 130.059 307.809C130.043 307.595 130.023 307.334 129.993 307.007C128.249 287.109 128.361 264.354 127.603 245.603C127.552 244.391 127.5 243.23 127.446 242.121C127.43 241.753 127.41 241.39 127.39 241.034C127.425 240.927 127.466 240.814 127.512 240.707C127.521 240.676 127.533 240.646 127.547 240.618C127.562 240.581 127.579 240.545 127.598 240.511C127.608 240.493 127.624 240.469 127.634 240.451C127.641 240.431 127.65 240.411 127.659 240.392C127.705 240.309 127.756 240.22 127.812 240.137C127.837 240.101 127.857 240.071 127.883 240.042C127.9 240.011 127.921 239.983 127.944 239.958C127.959 239.93 127.978 239.904 128 239.881C128.02 239.857 128.04 239.828 128.066 239.798C128.077 239.779 128.091 239.763 128.107 239.75C128.147 239.696 128.191 239.647 128.239 239.602C128.42 239.407 128.614 239.228 128.818 239.067C128.889 239.014 128.966 238.96 129.037 238.901C129.549 238.543 130.089 238.24 130.648 237.998C130.842 237.915 131.035 237.837 131.243 237.754C131.319 237.73 131.391 237.701 131.467 237.671C131.579 237.629 131.691 237.588 131.807 237.558C132.387 237.356 133.012 237.184 133.688 237.023C133.77 237.006 133.856 236.988 133.943 236.964C134.065 236.934 134.192 236.91 134.319 236.887C134.492 236.851 134.67 236.815 134.848 236.78C136.357 236.5 138.071 236.293 139.962 236.156C140.14 236.144 140.318 236.132 140.496 236.12C140.704 236.108 140.912 236.096 141.126 236.085C141.304 236.073 141.487 236.067 141.67 236.061C141.848 236.049 142.031 236.043 142.219 236.037C142.732 236.019 143.261 236.001 143.8 235.99C145.335 235.954 146.952 235.966 148.65 236.007C149.438 236.031 150.241 236.055 151.065 236.096C151.121 236.096 151.172 236.102 151.222 236.102C151.939 236.132 152.661 236.168 153.403 236.215C153.922 236.245 154.445 236.275 154.969 236.31C155.462 236.346 155.96 236.382 156.464 236.423C156.855 236.447 157.247 236.483 157.643 236.512C157.979 236.542 158.314 236.572 158.65 236.596L159.107 236.631C159.356 236.655 159.605 236.673 159.86 236.703C160.419 236.756 160.978 236.809 161.547 236.863C162.112 236.922 162.686 236.982 163.261 237.041C163.835 237.101 164.415 237.166 164.994 237.231C165.055 237.237 165.111 237.243 165.167 237.249C165.696 237.314 166.224 237.374 166.758 237.439C166.88 237.451 167.007 237.463 167.129 237.481C167.638 237.541 168.157 237.611 168.671 237.674C168.828 237.694 168.985 237.713 169.143 237.734C169.546 237.785 169.942 237.829 170.347 237.885C170.881 237.956 171.425 238.021 171.954 238.105C172.366 238.158 172.777 238.212 173.189 238.271C173.835 238.36 174.491 238.455 175.146 238.556C175.396 238.592 175.645 238.628 175.894 238.669C177.765 238.942 179.656 239.245 181.577 239.56C184.49 240.042 187.449 240.564 190.428 241.129C193.412 241.693 196.413 242.289 199.431 242.917C200.194 243.078 200.957 243.238 201.724 243.404C202.07 243.482 202.416 243.559 202.761 243.636C203.351 243.761 203.941 243.892 204.53 244.022C205.12 244.153 205.71 244.284 206.3 244.42C207.001 244.581 207.708 244.741 208.409 244.902C213.031 245.971 217.626 247.112 222.11 248.306C222.847 248.502 223.584 248.704 224.316 248.9C225.781 249.298 227.231 249.702 228.668 250.112C229.065 250.219 229.456 250.332 229.848 250.445C230.824 250.73 231.8 251.015 232.761 251.306L232.928 251.36C233.635 251.562 234.326 251.77 235.018 251.984C236.65 252.483 238.254 252.988 239.832 253.499C240.879 253.837 241.915 254.18 242.938 254.527C244.468 255.043 245.968 255.566 247.427 256.095C247.788 256.226 248.149 256.357 248.505 256.481C249.573 256.867 250.625 257.26 251.647 257.652C252.46 257.961 253.253 258.276 254.036 258.591C254.819 258.905 255.587 259.22 256.339 259.535C256.822 259.737 257.3 259.951 257.778 260.153C258.464 260.45 259.14 260.747 259.801 261.044C260.004 261.133 260.203 261.228 260.401 261.318C260.528 261.383 260.65 261.436 260.772 261.496C261.011 261.609 261.255 261.716 261.489 261.829C261.728 261.935 261.962 262.048 262.195 262.167C262.424 262.274 262.658 262.387 262.882 262.5C263.111 262.607 263.334 262.72 263.558 262.839C263.746 262.928 263.929 263.023 264.107 263.118C264.468 263.302 264.829 263.486 265.18 263.676C265.353 263.771 265.525 263.86 265.698 263.956L266.095 264.169C266.151 264.205 266.207 264.235 266.262 264.265C266.39 264.336 266.522 264.413 266.649 264.484C266.944 264.645 267.233 264.817 267.518 264.977C267.899 265.203 268.271 265.429 268.626 265.649C268.987 265.875 269.338 266.1 269.674 266.32C269.73 266.356 269.78 266.392 269.836 266.427C269.913 266.475 269.989 266.528 270.065 266.576C270.324 266.748 270.574 266.926 270.823 267.099C271.311 267.449 271.773 267.794 272.205 268.138C272.302 268.216 272.393 268.293 272.49 268.364C272.81 268.631 273.115 268.893 273.4 269.16C273.4 269.166 273.4 269.166 273.405 269.166C273.502 269.249 273.593 269.338 273.685 269.422C273.761 269.505 273.842 269.576 273.919 269.659C274.183 269.927 274.427 270.182 274.651 270.443C274.726 270.524 274.797 270.609 274.864 270.699C274.894 270.728 274.921 270.759 274.946 270.794C275.047 270.913 275.139 271.032 275.225 271.151C275.239 271.167 275.25 271.185 275.261 271.204C275.383 271.37 275.495 271.537 275.601 271.703C275.652 271.786 275.708 271.869 275.754 271.953C275.815 272.054 275.876 272.161 275.927 272.262C275.972 272.345 276.013 272.434 276.054 272.517C276.162 272.731 276.254 272.956 276.328 273.188C276.385 273.346 276.431 273.509 276.466 273.676C276.504 273.833 276.533 273.994 276.552 274.157Z" fill="#2F2E41"/>
<path opacity="0.2" d="M276.552 274.157C276.547 275.197 276.537 276.652 276.496 278.453C276.491 278.702 276.481 278.958 276.476 279.219C276.425 281.744 276.349 284.863 276.242 288.387C276.237 288.6 276.232 288.808 276.222 289.022C276.079 293.324 275.856 298.332 275.469 306.264C274.752 320.916 273.502 308.278 272.246 313.418C268.759 310.91 264.936 308.284 260.848 305.587C260.111 305.1 259.367 304.611 258.617 304.119C250.442 298.79 241.311 293.205 231.779 287.674C231.403 287.454 231.022 287.234 230.646 287.02C208.811 274.407 184.978 262.138 165.67 253.95C161.944 252.37 158.385 250.944 155.04 249.69C147.994 247.058 141.904 245.217 137.217 244.42C132.336 243.589 128.966 243.886 127.603 245.603C127.552 244.391 127.5 243.23 127.446 242.121C127.425 241.753 127.405 241.39 127.385 241.034C127.416 240.936 127.457 240.843 127.496 240.748C127.502 240.735 127.506 240.721 127.512 240.707C127.521 240.676 127.533 240.646 127.547 240.618C127.562 240.581 127.579 240.545 127.598 240.511C127.615 240.469 127.635 240.429 127.659 240.392C127.705 240.309 127.756 240.22 127.812 240.137C127.853 240.074 127.897 240.015 127.944 239.958C127.959 239.93 127.978 239.904 128 239.881C128.02 239.857 128.04 239.828 128.066 239.798C128.077 239.779 128.091 239.763 128.107 239.75C128.147 239.696 128.191 239.647 128.239 239.602C128.42 239.407 128.614 239.228 128.818 239.067C128.889 239.014 128.966 238.96 129.037 238.901C129.549 238.543 130.089 238.24 130.648 237.998C130.842 237.915 131.035 237.837 131.243 237.754C131.319 237.73 131.391 237.701 131.467 237.671C131.579 237.629 131.691 237.588 131.808 237.558C132.387 237.356 133.012 237.184 133.688 237.023C133.892 236.976 134.105 236.928 134.319 236.887C134.492 236.851 134.67 236.815 134.848 236.78C136.357 236.501 138.071 236.293 139.962 236.156C140.14 236.144 140.318 236.132 140.496 236.12C140.704 236.108 140.912 236.096 141.126 236.085C141.304 236.073 141.487 236.067 141.67 236.061C141.848 236.049 142.031 236.043 142.219 236.037C142.732 236.019 143.261 236.001 143.8 235.99C145.335 235.96 146.952 235.972 148.65 236.013C149.438 236.031 150.241 236.061 151.065 236.102C151.116 236.102 151.172 236.108 151.222 236.108C151.939 236.132 152.666 236.174 153.403 236.215C153.922 236.245 154.445 236.275 154.969 236.31C155.462 236.346 155.96 236.382 156.464 236.423C156.855 236.447 157.247 236.483 157.643 236.512C157.979 236.542 158.314 236.572 158.65 236.596C159.051 236.631 159.453 236.667 159.86 236.703C160.419 236.756 160.978 236.809 161.547 236.863C162.112 236.922 162.686 236.982 163.261 237.041C163.835 237.101 164.415 237.166 164.994 237.231C165.055 237.237 165.111 237.243 165.167 237.249C165.696 237.315 166.224 237.374 166.758 237.439C169.717 237.79 172.762 238.2 175.894 238.669C177.765 238.948 179.659 239.247 181.577 239.566C184.49 240.047 187.449 240.57 190.428 241.129C193.412 241.693 196.413 242.289 199.432 242.917C200.194 243.078 200.957 243.238 201.724 243.404C202.66 243.606 203.595 243.812 204.531 244.022C205.12 244.153 205.71 244.284 206.3 244.42C207.001 244.581 207.708 244.741 208.409 244.902C213.031 245.971 217.626 247.112 222.11 248.306C222.847 248.502 223.584 248.704 224.316 248.9C225.781 249.298 227.231 249.702 228.668 250.112C229.065 250.225 229.456 250.338 229.848 250.451C230.829 250.736 231.8 251.021 232.761 251.306V251.312C232.816 251.324 232.872 251.342 232.928 251.36C233.63 251.568 234.326 251.776 235.018 251.99C236.65 252.489 238.254 252.992 239.832 253.499C240.879 253.843 241.916 254.182 242.938 254.527C244.468 255.05 245.968 255.572 247.427 256.095C247.788 256.226 248.149 256.357 248.505 256.481C249.573 256.873 250.62 257.264 251.647 257.652C252.46 257.961 253.253 258.276 254.036 258.591C254.819 258.905 255.587 259.22 256.339 259.535C256.827 259.737 257.305 259.945 257.778 260.147C258.469 260.444 259.14 260.741 259.801 261.044C260.004 261.133 260.203 261.229 260.401 261.318C260.772 261.484 261.133 261.656 261.489 261.829C261.728 261.936 261.962 262.048 262.195 262.167C262.424 262.274 262.658 262.387 262.882 262.5C263.111 262.607 263.334 262.72 263.558 262.839C263.746 262.928 263.929 263.023 264.107 263.118C264.468 263.302 264.829 263.486 265.18 263.676C265.352 263.771 265.525 263.861 265.698 263.956L266.095 264.17C266.151 264.205 266.207 264.235 266.262 264.265C266.695 264.502 267.111 264.74 267.518 264.978C267.899 265.203 268.271 265.429 268.626 265.649C269.048 265.91 269.45 266.166 269.836 266.427C269.913 266.475 269.989 266.528 270.065 266.576C270.324 266.748 270.573 266.926 270.823 267.099C271.311 267.449 271.773 267.794 272.205 268.138C272.632 268.483 273.029 268.822 273.4 269.16C273.4 269.166 273.4 269.166 273.405 269.166C273.583 269.333 273.756 269.499 273.919 269.659C274.183 269.927 274.427 270.182 274.651 270.444C274.726 270.524 274.797 270.61 274.864 270.699C274.894 270.728 274.921 270.76 274.946 270.794C275.052 270.931 275.159 271.067 275.261 271.204C275.383 271.37 275.495 271.537 275.601 271.703C275.652 271.786 275.708 271.869 275.754 271.953C275.815 272.054 275.876 272.161 275.927 272.262C275.972 272.345 276.013 272.434 276.054 272.517C276.162 272.731 276.254 272.956 276.328 273.188C276.384 273.347 276.43 273.51 276.466 273.676C276.504 273.834 276.533 273.994 276.552 274.157Z" fill="black"/>
</g>
<defs>
<clipPath id="clip0_15_88">
<rect width="400" height="340" fill="white"/>
</clipPath>
</defs>
</svg>
