<svg width="346" height="216" viewBox="0 0 346 216" fill="none" xmlns="http://www.w3.org/2000/svg">
<g clip-path="url(#clip0_154_5209)">
<path d="M90.4193 131.639C126.771 131.639 156.239 102.171 156.239 65.8197C156.239 29.4685 126.771 0 90.4193 0C54.0681 0 24.5996 29.4685 24.5996 65.8197C24.5996 102.171 54.0681 131.639 90.4193 131.639Z" fill="#F2F2F2"/>
<path d="M0 15.8035C0 39.7513 15.0236 59.1296 33.5899 59.1296L0 15.8035Z" fill="#2F3D50"/>
<path d="M33.5896 59.1296C33.5896 34.9127 50.3551 15.3167 71.074 15.3167L33.5896 59.1296Z" fill="#5766E5"/>
<path d="M12.17 17.9744C12.17 40.7223 21.7502 59.1296 33.5896 59.1296L12.17 17.9744Z" fill="#5766E5"/>
<path d="M33.5896 59.1299C33.5896 28.1861 52.9679 3.14673 76.9157 3.14673L33.5896 59.1299Z" fill="#2F3D50"/>
<path d="M26.5244 59.4348C26.5244 59.4348 31.288 59.2881 32.7236 58.2659C34.1593 57.2436 40.0513 56.0229 40.4074 57.6624C40.7636 59.302 47.5662 65.8167 42.1881 65.8601C36.8101 65.9035 29.6919 65.0224 28.259 64.1496C26.8261 63.2768 26.5244 59.4348 26.5244 59.4348Z" fill="#A8A8A8"/>
<path opacity="0.2" d="M42.2841 65.2894C36.906 65.3328 29.7878 64.4517 28.355 63.5789C27.2638 62.9142 26.8289 60.5291 26.6834 59.4287C26.5827 59.433 26.5244 59.4349 26.5244 59.4349C26.5244 59.4349 26.8261 63.2768 28.259 64.1496C29.6919 65.0224 36.8101 65.9035 42.1881 65.8601C43.7406 65.8476 44.2768 65.2953 44.2474 64.4772C44.0317 64.9715 43.4396 65.2801 42.2841 65.2894Z" fill="#5F6B87"/>
<path d="M61.3723 139.037C93.2863 139.037 119.158 135.517 119.158 131.176C119.158 126.834 93.2863 123.314 61.3723 123.314C29.4583 123.314 3.58691 126.834 3.58691 131.176C3.58691 135.517 29.4583 139.037 61.3723 139.037Z" fill="#AFBED3"/>
<path opacity="0.7" d="M61.3726 137.776C88.1667 137.776 109.888 134.821 109.888 131.176C109.888 127.531 88.1667 124.576 61.3726 124.576C34.5785 124.576 12.8576 127.531 12.8576 131.176C12.8576 134.821 34.5785 137.776 61.3726 137.776Z" fill="#5F6B87"/>
<path d="M258.523 216C306.82 216 345.973 210.674 345.973 204.103C345.973 197.533 306.82 192.206 258.523 192.206C210.225 192.206 171.072 197.533 171.072 204.103C171.072 210.674 210.225 216 258.523 216Z" fill="#AFBED3"/>
<path d="M95.9824 206.614C124.995 206.614 148.515 203.415 148.515 199.468C148.515 195.521 124.995 192.321 95.9824 192.321C66.9697 192.321 43.4502 195.521 43.4502 199.468C43.4502 203.415 66.9697 206.614 95.9824 206.614Z" fill="#AFBED3"/>
<path d="M142.952 193.442C170.763 200.549 224.222 184.172 230.094 165.631" stroke="#2F3D50" stroke-width="2" stroke-miterlimit="10"/>
<path d="M95.673 80.0345C95.673 80.0345 135.845 68.91 138.317 104.756C140.789 140.601 105.252 150.798 133.064 157.906" stroke="#2F3D50" stroke-width="2" stroke-miterlimit="10"/>
<path d="M56.8613 166.028C56.8613 166.028 68.9352 162.684 69.6782 173.458C70.4212 184.231 59.7405 187.296 68.0993 189.432" stroke="#2F3D50" stroke-width="2" stroke-miterlimit="10"/>
<path d="M240.629 174.049L238.195 189.59C238.195 189.59 226.211 195.957 234.637 196.144C243.064 196.331 282.761 196.144 282.761 196.144C282.761 196.144 290.438 196.144 278.267 189.403L275.832 173.112L240.629 174.049Z" fill="#2F3D50"/>
<path opacity="0.1" d="M232.943 195.976C234.856 194.273 238.196 192.499 238.196 192.499L240.63 176.957L275.833 176.99L278.267 192.311C281.106 193.883 282.864 195.088 283.893 196.013C285.456 195.656 287.164 194.331 278.267 189.403L275.833 173.112L240.63 174.049L238.196 189.59C238.196 189.59 228.125 194.941 232.943 195.976Z" fill="#5F6B87"/>
<path d="M331.769 65.7236H184.32C181.24 65.7236 178.743 68.2203 178.743 71.3V170.626C178.743 173.705 181.24 176.202 184.32 176.202H331.769C334.848 176.202 337.345 173.705 337.345 170.626V71.3C337.345 68.2203 334.848 65.7236 331.769 65.7236Z" fill="#2F3D50"/>
<path d="M332.009 71.6221H184.08V154.387H332.009V71.6221Z" fill="#AFBED3"/>
<path d="M258.045 69.937C258.562 69.937 258.981 69.5178 258.981 69.0007C258.981 68.4836 258.562 68.0645 258.045 68.0645C257.528 68.0645 257.108 68.4836 257.108 69.0007C257.108 69.5178 257.528 69.937 258.045 69.937Z" fill="#F2F2F2"/>
<path d="M337.345 160.941V170.626C337.345 171.358 337.201 172.083 336.921 172.76C336.64 173.436 336.23 174.051 335.712 174.569C335.194 175.087 334.579 175.497 333.903 175.778C333.226 176.058 332.501 176.202 331.769 176.202H184.32C183.587 176.202 182.862 176.058 182.185 175.778C181.509 175.497 180.894 175.087 180.376 174.569C179.858 174.051 179.448 173.436 179.167 172.76C178.887 172.083 178.743 171.358 178.743 170.626V160.941H337.345Z" fill="#2F3D50"/>
<path d="M299.426 206.255V208.128H198.685V206.63L198.823 206.255L201.306 199.514H297.366L299.426 206.255Z" fill="#2F3D50"/>
<path d="M338.196 204.422C338.012 205.207 337.319 206.034 335.754 206.817C330.136 209.626 318.714 206.068 318.714 206.068C318.714 206.068 309.913 204.57 309.913 200.638C310.16 200.469 310.418 200.315 310.685 200.179C313.046 198.93 320.877 195.846 334.762 200.31C335.785 200.631 336.699 201.229 337.401 202.039C337.964 202.698 338.405 203.533 338.196 204.422Z" fill="#2F3D50"/>
<path opacity="0.1" d="M338.196 204.422C331.32 207.057 325.191 207.253 318.901 202.885C315.729 200.683 312.847 200.138 310.685 200.179C313.046 198.93 320.877 195.846 334.762 200.31C335.785 200.631 336.699 201.229 337.401 202.039C337.964 202.698 338.405 203.533 338.196 204.422Z" fill="#5F6B87"/>
<path d="M329.575 202.885C330.919 202.885 332.009 202.55 332.009 202.136C332.009 201.723 330.919 201.387 329.575 201.387C328.23 201.387 327.141 201.723 327.141 202.136C327.141 202.55 328.23 202.885 329.575 202.885Z" fill="#F2F2F2"/>
<path d="M258.044 172.176C260.009 172.176 261.602 170.583 261.602 168.618C261.602 166.653 260.009 165.061 258.044 165.061C256.079 165.061 254.486 166.653 254.486 168.618C254.486 170.583 256.079 172.176 258.044 172.176Z" fill="#F2F2F2"/>
<path opacity="0.1" d="M299.426 206.256V208.128H198.685V206.63L198.823 206.256H299.426Z" fill="#5F6B87"/>
<path d="M97.8361 49.1331H33.5614V123.914H97.8361V49.1331Z" fill="#2F3D50"/>
<path d="M104.325 41.7168H27.0722V68.2919H104.325V41.7168Z" fill="#5F6B87"/>
<path d="M104.325 73.2361H27.0722V99.8112H104.325V73.2361Z" fill="#5F6B87"/>
<path d="M104.325 104.755H27.0722V131.33H104.325V104.755Z" fill="#5F6B87"/>
<path opacity="0.4" d="M88.8747 46.3521H83.9305V51.2963H88.8747V46.3521Z" fill="#5766E5"/>
<path opacity="0.8" d="M95.9823 46.3521H91.0381V51.2963H95.9823V46.3521Z" fill="#5766E5"/>
<path d="M103.09 46.3521H98.1455V51.2963H103.09V46.3521Z" fill="#5766E5"/>
<path opacity="0.4" d="M88.8747 77.5623H83.9305V82.5065H88.8747V77.5623Z" fill="#5766E5"/>
<path opacity="0.8" d="M95.9823 77.5623H91.0381V82.5065H95.9823V77.5623Z" fill="#5766E5"/>
<path d="M103.09 77.5623H98.1455V82.5065H103.09V77.5623Z" fill="#5766E5"/>
<path opacity="0.4" d="M88.8747 108.772H83.9305V113.717H88.8747V108.772Z" fill="#5766E5"/>
<path opacity="0.8" d="M95.9823 108.772H91.0381V113.717H95.9823V108.772Z" fill="#5766E5"/>
<path d="M103.09 108.772H98.1455V113.717H103.09V108.772Z" fill="#5766E5"/>
<path d="M97.8358 190.661C111.318 190.661 122.248 179.731 122.248 166.249C122.248 152.767 111.318 141.837 97.8358 141.837C84.3535 141.837 73.4238 152.767 73.4238 166.249C73.4238 179.731 84.3535 190.661 97.8358 190.661Z" fill="#2F3D50"/>
<path d="M94.1282 185.408H86.7119V198.695H94.1282V185.408Z" fill="#2F3D50"/>
<path d="M108.96 185.408H101.544V198.695H108.96V185.408Z" fill="#2F3D50"/>
<path d="M92.8922 201.167C96.3054 201.167 99.0724 200.13 99.0724 198.85C99.0724 197.57 96.3054 196.532 92.8922 196.532C89.4789 196.532 86.7119 197.57 86.7119 198.85C86.7119 200.13 89.4789 201.167 92.8922 201.167Z" fill="#2F3D50"/>
<path d="M107.724 200.858C111.138 200.858 113.905 199.821 113.905 198.541C113.905 197.261 111.138 196.223 107.724 196.223C104.311 196.223 101.544 197.261 101.544 198.541C101.544 199.821 104.311 200.858 107.724 200.858Z" fill="#2F3D50"/>
<path d="M98.4537 168.412C103.062 168.412 106.797 164.677 106.797 160.069C106.797 155.461 103.062 151.725 98.4537 151.725C93.8458 151.725 90.1104 155.461 90.1104 160.069C90.1104 164.677 93.8458 168.412 98.4537 168.412Z" fill="white"/>
<path d="M98.4541 162.85C99.9901 162.85 101.235 161.605 101.235 160.069C101.235 158.533 99.9901 157.288 98.4541 157.288C96.9182 157.288 95.673 158.533 95.673 160.069C95.673 161.605 96.9182 162.85 98.4541 162.85Z" fill="#AFBED3"/>
<path d="M74.1558 143.547C72.1846 134.719 78.4856 125.799 88.2294 123.623C97.9733 121.447 107.47 126.84 109.441 135.668C111.412 144.495 104.955 147.751 95.211 149.927C85.4672 152.103 76.1269 152.374 74.1558 143.547Z" fill="#5766E5"/>
<path d="M120.733 161.38C126.93 158.727 131.279 155 130.447 153.054C129.614 151.109 123.915 151.682 117.717 154.334C111.52 156.987 107.171 160.714 108.004 162.66C108.837 164.605 114.536 164.032 120.733 161.38Z" fill="#2F3D50"/>
<path d="M74.9988 177.758C81.1962 175.105 85.5451 171.378 84.7124 169.432C83.8797 167.486 78.1807 168.06 71.9833 170.712C65.7859 173.365 61.4369 177.092 62.2696 179.038C63.1023 180.983 68.8014 180.41 74.9988 177.758Z" fill="#2F3D50"/>
<path d="M112.05 173.356C112.05 175.746 105.898 180.464 99.0717 180.464C92.2452 180.464 85.7842 176.055 85.7842 173.665C85.7842 171.276 92.2452 171.811 99.0717 171.811C105.898 171.811 112.05 170.967 112.05 173.356Z" fill="white"/>
</g>
<defs>
<clipPath id="clip0_154_5209">
<rect width="345.974" height="216" fill="white"/>
</clipPath>
</defs>
</svg>
