<svg width="340" height="270" viewBox="0 0 340 270" fill="none" xmlns="http://www.w3.org/2000/svg">
<g clip-path="url(#clip0_57_115)">
<path d="M248.267 256.541H241.502L238.282 228.816H248.267V256.541Z" fill="#9E616A"/>
<path d="M251.837 268.995H246.986L246.12 264.128L243.902 268.995H231.035C230.418 268.995 229.817 268.785 229.321 268.397C228.824 268.009 228.457 267.462 228.273 266.836C228.09 266.21 228.099 265.539 228.3 264.919C228.501 264.3 228.884 263.765 229.391 263.392L239.667 255.852V250.932L250.475 251.618L251.837 268.995Z" fill="#2F2E41"/>
<path d="M288.458 247.47L283.029 251.759L264.875 231.552L272.888 225.222L288.458 247.47Z" fill="#9E616A"/>
<path d="M298.318 255.199L294.424 258.275L290.996 254.919L291.95 260.231L281.624 268.389C281.13 268.78 280.53 268.992 279.913 268.996C279.296 268.999 278.695 268.793 278.196 268.407C277.697 268.022 277.328 267.477 277.141 266.852C276.955 266.227 276.961 265.556 277.159 264.935L281.17 252.37L278.407 248.422L287.465 242.119L298.318 255.199Z" fill="#2F2E41"/>
<path d="M256.143 113.496C256.143 113.496 268.979 125.279 263.056 158.868L255.826 191.78L279.406 233.343L271.887 243.061L241.234 198.074L230.126 170.389L227.009 121.116L256.143 113.496Z" fill="#2F2E41"/>
<path d="M236.248 178.278L235.476 190.982L237.839 245.118L248.956 243.061L251.081 204.517L236.248 178.278Z" fill="#2F2E41"/>
<path d="M93.5795 263.059L99.6295 263.059L102.507 238.266L93.5787 238.266L93.5795 263.059Z" fill="#FFB6B6"/>
<path d="M92.0364 260.961L93.7392 260.961L100.387 258.088L103.951 260.96H103.951C105.965 260.96 107.896 261.81 109.32 263.323C110.744 264.836 111.544 266.888 111.544 269.027V269.289L92.0367 269.29L92.0364 260.961Z" fill="#2F2E41"/>
<path d="M117.024 259.009L122.925 260.424L130.873 236.913L122.163 234.824L117.024 259.009Z" fill="#FFB6B6"/>
<path d="M115.954 256.6L117.615 256.999L124.695 255.753L127.575 259.388L127.576 259.388C129.54 259.86 131.247 261.141 132.323 262.95C133.398 264.759 133.753 266.947 133.31 269.034L133.255 269.29L114.227 264.725L115.954 256.6Z" fill="#2F2E41"/>
<path d="M85.9173 111.485C83.0808 120.574 83.3807 130.44 86.5991 141.03L87.9748 200.649C87.9748 200.649 85.925 239.747 92.5394 253.505H102.132L106.881 197.079L107.478 159.205L128.044 191.158L114.945 252.583L126.751 253.704L148.007 187.044L121.781 122.372L85.9173 111.485Z" fill="#2F2E41"/>
<path d="M196.542 85.5945C203.879 78.5694 214.793 75.0371 223.947 78.9762C214.556 84.5157 207.313 93.4058 203.497 104.074C202.04 108.193 200.823 112.937 197.238 115.142C195.008 116.515 192.233 116.582 189.732 115.919C187.231 115.257 184.939 113.929 182.678 112.614L182.035 112.598C184.923 102.563 189.204 92.6195 196.542 85.5945Z" fill="#E6E6E6"/>
<path d="M223.896 79.1896C215.788 80.3029 208.217 84.1021 202.257 90.0478C200.952 91.3036 199.842 92.77 198.968 94.393C198.164 96.0033 197.78 97.8129 197.857 99.6339C197.897 101.333 198.123 103.067 197.773 104.747C197.582 105.604 197.222 106.408 196.718 107.108C196.214 107.807 195.576 108.385 194.847 108.804C193.055 109.898 191 110.243 188.98 110.506C186.737 110.798 184.402 111.064 182.461 112.401C182.225 112.563 182.002 112.165 182.237 112.004C185.616 109.678 189.891 110.524 193.524 108.972C195.219 108.247 196.719 106.976 197.25 105.053C197.714 103.372 197.482 101.585 197.428 99.8643C197.329 98.0891 197.64 96.3149 198.334 94.6969C199.128 93.0318 200.183 91.5224 201.454 90.2334C204.271 87.2829 207.507 84.8214 211.044 82.939C215.069 80.7668 219.414 79.3423 223.892 78.727C224.169 78.6891 224.171 79.1519 223.896 79.1896Z" fill="white"/>
<path d="M204.07 88.0133C203.267 86.8155 202.89 85.3533 203.008 83.8879C203.126 82.4226 203.73 81.0494 204.713 80.0137C204.913 79.8049 205.227 80.1245 205.028 80.3336C204.111 81.2963 203.548 82.5754 203.441 83.9402C203.334 85.305 203.689 86.6655 204.443 87.7762C204.607 88.0178 204.232 88.2535 204.07 88.0133Z" fill="white"/>
<path d="M197.73 98.775C200.517 99.2995 203.387 98.689 205.768 97.0651C206.004 96.904 206.227 97.3013 205.991 97.4622C203.51 99.1471 200.522 99.776 197.624 99.2235C197.348 99.1706 197.456 98.7224 197.73 98.775Z" fill="white"/>
<path d="M215.105 81.3789C215.324 81.9112 215.665 82.3771 216.096 82.7349C216.528 83.0926 217.036 83.3309 217.575 83.4285C217.852 83.4776 217.743 83.9257 217.469 83.8769C216.873 83.7662 216.312 83.5023 215.835 83.1082C215.358 82.7141 214.979 82.2018 214.731 81.6161C214.703 81.5629 214.695 81.5006 214.709 81.4417C214.723 81.3828 214.758 81.3317 214.806 81.299C214.856 81.2678 214.915 81.2588 214.971 81.2737C215.027 81.2887 215.075 81.3265 215.105 81.3789Z" fill="white"/>
<path d="M234.028 112.855C233.854 112.829 233.68 112.804 233.504 112.781C231.169 112.452 228.812 112.324 226.457 112.401C226.275 112.403 226.09 112.409 225.908 112.418C220.236 112.665 214.657 114.03 209.454 116.442C207.385 117.404 205.387 118.531 203.478 119.815C200.843 121.588 198.118 123.733 195.171 124.457C194.865 124.536 194.554 124.595 194.24 124.633L182.067 113.433C182.051 113.393 182.033 113.356 182.017 113.315L181.512 112.892C181.606 112.818 181.705 112.744 181.799 112.671C181.854 112.628 181.911 112.587 181.965 112.545C182.002 112.517 182.039 112.489 182.071 112.462C182.084 112.452 182.096 112.443 182.106 112.437C182.138 112.41 182.171 112.388 182.2 112.363C182.753 111.948 183.309 111.535 183.869 111.126C183.872 111.123 183.872 111.123 183.877 111.123C188.117 107.963 192.694 105.348 197.514 103.334C197.658 103.276 197.805 103.215 197.955 103.162C200.125 102.305 202.358 101.637 204.631 101.166C205.876 100.913 207.133 100.726 208.396 100.608C211.66 100.308 214.948 100.555 218.14 101.341C224.502 102.909 230.321 106.621 233.768 112.41C233.856 112.558 233.942 112.703 234.028 112.855Z" fill="#E6E6E6"/>
<path d="M233.866 112.994C226.762 108.696 218.564 106.886 210.436 107.821C208.683 107.989 206.966 108.45 205.348 109.186C203.793 109.958 202.462 111.157 201.491 112.66C200.56 114.043 199.758 115.571 198.527 116.689C197.888 117.251 197.145 117.663 196.347 117.899C195.548 118.135 194.711 118.188 193.891 118.056C191.841 117.784 190.005 116.745 188.243 115.662C186.286 114.461 184.271 113.179 181.964 113.005C181.684 112.983 181.731 112.524 182.01 112.545C186.026 112.849 188.96 116.259 192.74 117.344C194.504 117.85 196.422 117.794 197.935 116.599C199.258 115.553 200.087 113.978 201.018 112.57C201.945 111.089 203.198 109.871 204.67 109.024C206.247 108.202 207.945 107.672 209.69 107.455C213.611 106.902 217.59 107.006 221.48 107.766C225.925 108.606 230.202 110.249 234.125 112.622C234.368 112.769 234.108 113.14 233.866 112.994Z" fill="white"/>
<path d="M213.036 107.356C213.074 105.886 213.602 104.478 214.527 103.383C215.451 102.288 216.712 101.579 218.083 101.38C218.361 101.341 218.431 101.798 218.153 101.837C216.875 102.019 215.701 102.68 214.842 103.702C213.984 104.723 213.496 106.037 213.469 107.406C213.463 107.703 213.03 107.652 213.036 107.356Z" fill="white"/>
<path d="M201.877 111.893C203.804 114.094 206.442 115.443 209.263 115.67C209.543 115.692 209.495 116.152 209.216 116.129C206.281 115.888 203.539 114.479 201.538 112.183C201.347 111.964 201.687 111.676 201.877 111.893Z" fill="white"/>
<path d="M225.606 109.118C225.48 109.683 225.489 110.273 225.63 110.835C225.772 111.396 226.042 111.912 226.418 112.335C226.611 112.551 226.27 112.839 226.079 112.625C225.666 112.155 225.368 111.586 225.21 110.966C225.052 110.346 225.04 109.694 225.174 109.068C225.182 109.008 225.211 108.953 225.255 108.915C225.3 108.877 225.357 108.858 225.414 108.863C225.471 108.87 225.523 108.901 225.559 108.948C225.595 108.996 225.612 109.057 225.606 109.118Z" fill="white"/>
<path d="M20.2073 262.609C19.6358 264.887 18.1343 266.784 16.3214 268.166C16.0258 268.392 15.7223 268.601 15.4149 268.798C15.3203 268.857 15.2257 268.92 15.1272 268.974C15.0208 269.041 14.9144 269.104 14.808 269.162H6.28338C6.12968 268.832 5.97992 268.497 5.83015 268.166C2.17675 260.009 -0.388901 251.207 0.0485607 242.241C0.222118 238.764 0.909713 235.337 2.08611 232.087C4.42712 225.609 8.69928 220.002 14.5755 217.18C14.7213 217.108 14.875 217.037 15.0247 216.97C14.9774 217.15 14.9302 217.326 14.8829 217.506C14.2524 219.919 13.807 222.383 13.5508 224.872C13.5271 225.065 13.5074 225.257 13.4917 225.454C12.9318 231.458 13.4289 237.52 14.9577 243.33C14.9617 243.343 14.9656 243.359 14.9696 243.372C15.3046 244.658 15.6934 245.924 16.1361 247.17C16.4829 248.154 16.8574 249.126 17.2672 250.08C18.9777 254.088 21.2714 258.359 20.2073 262.609Z" fill="#E6E6E6"/>
<path d="M15.1312 217.159C15.0484 217.276 14.9656 217.389 14.8829 217.506C13.1519 219.944 11.682 222.579 10.5004 225.362C10.4373 225.5 10.3782 225.638 10.327 225.781C8.70794 229.667 7.66818 233.798 7.24501 238.025C7.24043 238.054 7.2378 238.083 7.23713 238.113C7.1386 239.101 7.07948 240.097 7.05584 241.094C6.9682 242.962 7.15839 244.833 7.61941 246.638C8.03978 248.112 8.77638 249.463 9.77126 250.583C9.86978 250.696 9.96831 250.809 10.0747 250.918C10.1535 251.006 10.2402 251.094 10.323 251.177C11.1191 251.986 11.9901 252.735 12.7389 253.602C13.0821 253.991 13.3921 254.411 13.6651 254.858C14.1008 255.608 14.3822 256.447 14.4909 257.32C14.5996 258.193 14.533 259.081 14.2956 259.925C13.7596 262.044 12.534 263.832 11.2807 265.536C10.6541 266.39 10.0077 267.253 9.44808 268.166C9.24317 268.493 9.05398 268.823 8.88059 269.163H8.38401C8.54954 268.823 8.73083 268.493 8.92788 268.166C10.3664 265.758 12.4118 263.69 13.472 261.039C14.1893 259.251 14.406 257.224 13.4996 255.47C13.2339 254.959 12.9124 254.484 12.5419 254.054C11.8207 253.187 10.9576 252.446 10.1733 251.663C9.97622 251.466 9.7831 251.265 9.59787 251.056C8.61583 249.996 7.85802 248.725 7.37509 247.329C6.82818 245.556 6.56962 243.697 6.61052 241.831C6.61052 240.642 6.66964 239.444 6.77999 238.255C6.79181 238.104 6.80757 237.949 6.82334 237.794C7.62931 230.311 10.306 223.193 14.5755 217.18C14.6543 217.062 14.7371 216.949 14.8198 216.836C14.9893 216.602 15.3006 216.928 15.1312 217.159Z" fill="white"/>
<path d="M6.98243 238.295C5.61735 238.051 4.37822 237.3 3.48633 236.175C2.59444 235.05 2.10787 233.625 2.11351 232.155C2.11427 232.095 2.1369 232.037 2.17664 231.995C2.21639 231.952 2.27014 231.928 2.32658 231.926C2.38301 231.925 2.43772 231.947 2.47918 231.988C2.52064 232.029 2.54561 232.085 2.54883 232.145C2.5412 233.514 2.99456 234.841 3.8271 235.887C4.65964 236.932 5.81651 237.627 7.08892 237.846C7.36537 237.894 7.2573 238.342 6.98243 238.295Z" fill="white"/>
<path d="M9.66188 250.667C11.9811 248.945 13.6041 246.357 14.2072 243.419C14.2667 243.128 14.6888 243.242 14.6293 243.533C13.9963 246.588 12.3022 249.277 9.88505 251.064C9.65455 251.234 9.43264 250.836 9.66188 250.667Z" fill="white"/>
<path d="M10.3699 225.313C10.8796 225.524 11.4307 225.598 11.9737 225.527C12.5167 225.456 13.0346 225.242 13.4808 224.906C13.7092 224.733 13.9309 225.131 13.704 225.303C13.2093 225.672 12.6371 225.907 12.0373 225.987C11.4376 226.067 10.8286 225.989 10.2634 225.761C10.2085 225.745 10.1616 225.706 10.1323 225.654C10.103 225.602 10.0934 225.54 10.1057 225.481C10.12 225.421 10.1559 225.37 10.2054 225.339C10.2548 225.308 10.314 225.298 10.3699 225.313Z" fill="white"/>
<path d="M44.6973 233.352C44.5593 233.465 44.4175 233.578 44.2795 233.695C42.4084 235.216 40.6567 236.897 39.0418 238.72C38.9157 238.858 38.7896 239 38.6674 239.143L38.6635 239.147C34.8343 243.564 31.8066 248.694 29.7329 254.28L29.7211 254.318C29.7172 254.331 29.7132 254.339 29.7093 254.352C28.8874 256.587 28.2247 258.886 27.7269 261.227C27.2461 263.514 26.852 265.963 26.0992 268.166C25.9849 268.505 25.8588 268.84 25.7248 269.162H8.2027C8.26181 268.832 8.32487 268.497 8.38793 268.166C9.27927 263.314 10.6724 258.581 12.5418 254.054C12.6049 253.903 12.668 253.753 12.7389 253.602C13.704 251.365 14.8388 249.215 16.1322 247.174L16.1325 247.173L16.1333 247.171L16.1346 247.17L16.1361 247.17C16.8463 246.056 17.6092 244.982 18.422 243.95C20.5297 241.285 23.0195 238.99 25.7997 237.15C25.8155 237.137 25.8352 237.129 25.8509 237.116C31.3842 233.469 37.9422 231.731 44.2125 233.234H44.2165C44.3781 233.272 44.5357 233.31 44.6973 233.352Z" fill="#E6E6E6"/>
<path d="M44.6776 233.573C44.5436 233.611 44.4096 233.653 44.2795 233.695C41.5175 234.533 38.8514 235.695 36.3303 237.158C36.2042 237.229 36.0781 237.304 35.952 237.38C32.4679 239.446 29.3053 242.072 26.5761 245.164C26.574 245.167 26.5726 245.17 26.5722 245.173C26.5406 245.206 26.5052 245.244 26.4776 245.277C25.847 245.998 25.2401 246.747 24.6647 247.518C23.5391 248.954 22.6322 250.569 21.9768 252.304C21.476 253.75 21.2993 255.3 21.4606 256.831C21.4724 256.985 21.4921 257.136 21.5118 257.291C21.5276 257.413 21.5433 257.534 21.563 257.66C21.8231 259.339 22.2724 261.022 22.1463 262.735C22.0696 263.612 21.8188 264.463 21.4106 265.23C21.0024 265.997 20.4459 266.664 19.7777 267.186C19.3235 267.559 18.838 267.887 18.3274 268.166C17.5973 268.566 16.8365 268.899 16.0534 269.163H14.5045C14.7134 269.1 14.9183 269.037 15.1272 268.974C15.8684 268.752 16.5962 268.482 17.3066 268.166C17.7125 267.986 18.1073 267.779 18.489 267.546C20.0733 266.579 21.3936 265.097 21.6694 263.116C21.9098 261.382 21.4448 259.649 21.1689 257.953C21.1216 257.66 21.0783 257.371 21.0546 257.082C20.8665 255.613 20.9807 254.119 21.3896 252.702C21.9567 250.934 22.8044 249.283 23.8962 247.819C24.5715 246.866 25.2923 245.951 26.0559 245.076C26.1505 244.963 26.249 244.85 26.3515 244.737C29.138 241.622 32.3555 238.978 35.8929 236.894H35.8968C38.527 235.338 41.3174 234.11 44.2125 233.234H44.2165C44.3465 233.192 44.4805 233.151 44.6106 233.113C44.8825 233.037 44.9456 233.494 44.6776 233.573Z" fill="white"/>
<path d="M26.1955 245.235C25.2436 244.168 24.68 242.775 24.6052 241.306C24.5303 239.838 24.9493 238.389 25.7872 237.218C25.9575 236.982 26.311 237.252 26.1405 237.489C25.3584 238.577 24.9682 239.927 25.0405 241.294C25.1128 242.662 25.6427 243.957 26.5347 244.945C26.7283 245.16 26.388 245.449 26.1955 245.235Z" fill="white"/>
<path d="M21.3241 256.828C24.1519 256.936 26.9142 255.908 29.0602 253.949C29.2727 253.754 29.5453 254.115 29.3331 254.309C27.0963 256.344 24.2196 257.407 21.2773 257.288C20.9968 257.276 21.0452 256.816 21.3241 256.828Z" fill="white"/>
<path d="M36.2564 237.037C36.5437 237.532 36.9422 237.943 37.4159 238.234C37.8897 238.524 38.424 238.685 38.9709 238.702C39.2513 238.71 39.2026 239.17 38.924 239.162C38.3199 239.14 37.73 238.962 37.2059 238.642C36.6818 238.322 36.2394 237.871 35.9173 237.327C35.8829 237.279 35.8672 237.218 35.8733 237.158C35.8795 237.097 35.907 237.041 35.9504 237.002C35.9955 236.964 36.0529 236.946 36.1102 236.953C36.1675 236.959 36.2201 236.99 36.2564 237.037Z" fill="white"/>
<path d="M179.865 72.4969C179.46 73.0622 178.944 73.5264 178.353 73.8568C177.761 74.1872 177.109 74.3757 176.441 74.4092C175.773 74.4426 175.107 74.3201 174.489 74.0503C173.871 73.7806 173.316 73.37 172.863 72.8477L157.965 79.7319L159.416 70.8957L173.341 65.713C174.217 64.9631 175.322 64.5808 176.446 64.6385C177.57 64.6962 178.635 65.1899 179.439 66.0261C180.243 66.8623 180.731 67.9829 180.809 69.1755C180.888 70.3681 180.552 71.5499 179.865 72.4969Z" fill="#FFB8B8"/>
<path d="M169.923 75.2559L135.322 91.6322L135.247 91.604L95.8099 76.6721C92.8723 75.0409 90.6327 72.2782 89.5497 68.9498C88.4667 65.6214 88.6222 61.979 89.9843 58.7684C90.7393 56.9945 91.8393 55.4106 93.212 54.121C94.5846 52.8314 96.1988 51.8653 97.9482 51.2863C99.6976 50.7073 101.543 50.5285 103.362 50.7618C105.181 50.995 106.933 51.6349 108.502 52.6394L137.851 71.4239L166.31 67.505L169.923 75.2559Z" fill="#E6E6E6"/>
<path d="M340 269.502C340 269.567 339.988 269.632 339.965 269.693C339.941 269.753 339.907 269.808 339.863 269.854C339.82 269.901 339.768 269.937 339.711 269.962C339.654 269.987 339.593 270 339.531 270H0.482169C0.357785 270 0.2385 269.947 0.150547 269.854C0.0625943 269.761 0.0131836 269.634 0.0131836 269.502C0.0131836 269.37 0.0625943 269.243 0.150547 269.149C0.2385 269.056 0.357785 269.003 0.482169 269.003H339.531C339.593 269.003 339.654 269.016 339.711 269.041C339.768 269.066 339.82 269.103 339.863 269.149C339.907 269.195 339.941 269.25 339.965 269.311C339.988 269.371 340 269.436 340 269.502Z" fill="#CCCCCC"/>
<path d="M123.492 124.282L88.6108 118.354C87.696 118.042 86.8554 117.524 86.1467 116.835C85.4381 116.146 84.8782 115.302 84.5055 114.362C84.1327 113.421 83.9559 112.406 83.9873 111.386C84.0187 110.366 84.2575 109.365 84.6872 108.452L86.269 105.09L85.6546 69.7705C85.5805 65.1763 86.6465 60.6423 88.7453 56.6248C90.8441 52.6073 93.9017 49.2479 97.6105 46.8846L101.012 44.7236L102.731 40.0853L118.582 40.4961L118.628 46.5794L124.305 56.1972L124.305 56.2371L123.949 108.586L122.384 113.988L124.75 120.272L123.492 124.282Z" fill="#E6E6E6"/>
<path d="M112.108 34.3178C120.062 34.3178 126.511 27.4665 126.511 19.0151C126.511 10.5637 120.062 3.71252 112.108 3.71252C104.154 3.71252 97.7058 10.5637 97.7058 19.0151C97.7058 27.4665 104.154 34.3178 112.108 34.3178Z" fill="#FFB8B8"/>
<path d="M97.1109 22.351C96.6813 20.4282 96.8785 17.7224 97.1213 15.7864C97.7577 10.7107 100.411 5.88529 104.441 3.02706C105.205 2.41032 106.114 2.02687 107.068 1.91804C108.021 1.87574 109.055 2.41809 109.348 3.38322C109.588 2.74623 109.948 2.16831 110.407 1.68512C110.865 1.20193 111.412 0.823731 112.014 0.573866C113.222 0.0819912 114.522 -0.104024 115.81 0.0305648C118.306 0.249166 120.699 1.18167 122.737 2.72913C124.774 4.27658 126.379 6.38125 127.382 8.81977C127.766 9.79076 128.841 6.20421 129.328 7.12165C129.776 8.07528 130.558 8.80476 131.505 9.15399C132.46 9.43714 132.848 13.6179 133.224 12.6431C133.516 13.3635 133.631 14.1507 133.559 14.9312C133.487 15.7118 133.231 16.4603 132.813 17.1071C132.396 17.754 131.831 18.278 131.172 18.6305C130.513 18.9831 129.78 19.1525 129.042 19.1232C128.07 19.0846 127.141 18.7047 126.18 18.5412C122.746 17.9564 119.102 20.6027 118.368 24.2154C118.105 23.1706 117.685 22.1779 117.124 21.2754C116.84 20.8265 116.458 20.4564 116.012 20.1957C115.565 19.9351 115.067 19.7915 114.557 19.7768C113.58 19.8157 112.721 20.4945 112.087 21.2856C111.453 22.0766 110.977 22.9995 110.338 23.7862C108.464 26.0948 105.929 31.4784 103.258 31.0858C101.15 30.7759 97.6974 24.9764 97.1109 22.351Z" fill="#2F2E41"/>
<path d="M199.169 89.8375C199.27 89.1398 199.135 88.4268 198.788 87.8248C198.441 87.2228 197.905 86.7708 197.275 86.5488L158.489 72.8236C158.117 72.6915 157.723 72.6434 157.333 72.6826L147.612 73.6594L142.033 74.2216L131.74 75.2552C131.118 75.3183 130.534 75.5989 130.079 76.0528C129.623 76.5067 129.323 77.1083 129.224 77.7633L123.997 112.451C123.899 113.128 124.02 113.82 124.341 114.413C124.662 115.007 125.165 115.466 125.765 115.716L164.955 131.789C165.139 131.865 165.33 131.919 165.525 131.951C165.809 132 166.098 132.003 166.383 131.958L191.707 127.97C192.304 127.879 192.857 127.585 193.285 127.132C193.712 126.679 193.991 126.093 194.08 125.458L199.169 89.8375Z" fill="white"/>
<path d="M126.653 113.271L165.844 129.344C165.901 129.368 165.963 129.376 166.024 129.366L191.344 125.379C191.419 125.368 191.489 125.331 191.542 125.275C191.596 125.218 191.631 125.144 191.642 125.064L196.733 89.443C196.745 89.356 196.728 89.2675 196.685 89.1925C196.642 89.1175 196.575 89.0608 196.497 89.032L196.236 88.9383L157.709 75.3099C157.692 75.3033 157.673 75.2986 157.655 75.296C157.625 75.2901 157.595 75.2885 157.564 75.291L133.853 77.675L131.971 77.8626C131.894 77.8713 131.822 77.9067 131.765 77.9632C131.709 78.0197 131.671 78.0944 131.658 78.1757L126.433 112.862C126.42 112.947 126.435 113.034 126.475 113.108C126.515 113.183 126.578 113.24 126.653 113.271Z" fill="#F8833E"/>
<path d="M133.853 77.675L157.564 75.291C157.595 75.2885 157.625 75.2901 157.655 75.296C157.673 75.2986 157.692 75.3033 157.709 75.3099L196.236 88.9383L186.074 90.0813L182.27 90.507L171.448 91.7219C171.416 91.7236 171.385 91.7232 171.353 91.7207C171.334 91.7145 171.314 91.7083 171.291 91.7018L133.853 77.675Z" fill="#2F2E41"/>
<path d="M125.764 115.718L164.954 131.79C165.139 131.866 165.331 131.919 165.526 131.949C165.81 131.999 166.099 132.003 166.384 131.96L191.705 127.973C192.302 127.881 192.856 127.586 193.284 127.133C193.712 126.681 193.991 126.094 194.08 125.459L199.168 89.8375C199.244 89.3123 199.187 88.7753 199.003 88.2811C198.978 88.2154 198.952 88.1497 198.922 88.0878C198.72 87.6365 198.413 87.2476 198.03 86.9582C197.799 86.7821 197.544 86.6443 197.275 86.5492L197.229 86.5319L158.491 72.8233C158.333 72.7697 158.171 72.7279 158.007 72.6985C157.783 72.6648 157.557 72.6601 157.332 72.6846L147.612 73.658L142.034 74.2233L131.739 75.2561C131.317 75.2979 130.911 75.4407 130.549 75.6738C130.521 75.6882 130.494 75.7052 130.469 75.7246C130.451 75.737 130.434 75.7508 130.418 75.7657C130.102 75.9947 129.833 76.2897 129.628 76.6327C129.423 76.9756 129.286 77.3593 129.225 77.7604L123.995 112.451C123.896 113.128 124.018 113.82 124.339 114.414C124.661 115.008 125.164 115.468 125.764 115.718ZM129.919 77.8813C129.982 77.4656 130.156 77.0776 130.419 76.7628C130.499 76.6615 130.588 76.569 130.686 76.4869C130.952 76.2585 131.266 76.1027 131.601 76.033C131.668 76.0185 131.735 76.0084 131.802 76.0029L149.137 74.263L157.399 73.4276C157.455 73.4206 157.507 73.4216 157.559 73.4185C157.684 73.4157 157.809 73.4256 157.932 73.448C158.045 73.4636 158.157 73.4919 158.265 73.5323L197.049 87.2582C197.079 87.2697 197.106 87.2808 197.137 87.2923C197.489 87.4318 197.799 87.6713 198.032 87.9848C198.217 88.2249 198.352 88.5035 198.428 88.8027C198.504 89.1018 198.52 89.4146 198.474 89.7207L193.382 125.346C193.315 125.821 193.106 126.261 192.786 126.6C192.466 126.94 192.052 127.161 191.605 127.231L166.281 131.218C165.918 131.273 165.549 131.228 165.208 131.088L126.017 115.02C125.568 114.832 125.192 114.487 124.951 114.042C124.711 113.597 124.62 113.079 124.693 112.572L129.919 77.8813Z" fill="#3F3D56"/>
<path d="M130.334 75.9548C130.354 75.8917 130.391 75.8358 130.439 75.7931C130.455 75.7794 130.472 75.7671 130.49 75.7561C130.507 75.7494 130.523 75.7385 130.54 75.7317C130.618 75.6981 130.706 75.6966 130.786 75.7273L131.601 76.033L171.452 90.9694L180.779 89.9224L185.998 89.3375L197.045 88.0949L198.032 87.9848L198.224 87.9623C198.307 87.9542 198.39 87.9772 198.459 88.0272C198.527 88.0771 198.577 88.151 198.6 88.2359C198.605 88.2555 198.609 88.2756 198.61 88.2959C198.618 88.3765 198.602 88.4577 198.562 88.5274C198.523 88.597 198.464 88.6512 198.393 88.6819C198.362 88.6957 198.329 88.7051 198.296 88.7099L196.952 88.8595L186.074 90.0813L182.27 90.507L171.448 91.7219C171.416 91.7236 171.385 91.7232 171.353 91.7207C171.334 91.7145 171.314 91.7083 171.291 91.7018L130.686 76.4869L130.548 76.4351C130.516 76.424 130.487 76.4068 130.461 76.3842C130.4 76.3363 130.354 76.2689 130.331 76.1917C130.308 76.1145 130.309 76.0315 130.334 75.9548Z" fill="#3F3D56"/>
<path d="M165.633 132.058C165.541 132.043 165.459 131.989 165.404 131.909C165.349 131.83 165.326 131.73 165.34 131.633L171.061 91.2935C171.075 91.1954 171.125 91.1071 171.201 91.0482C171.276 90.9893 171.37 90.9644 171.462 90.9792L171.465 90.9797C171.557 90.9953 171.639 91.0488 171.694 91.1284C171.749 91.2081 171.772 91.3075 171.758 91.4051L166.037 131.744C166.023 131.843 165.973 131.931 165.898 131.99C165.823 132.049 165.728 132.073 165.636 132.059L165.633 132.058Z" fill="#3F3D56"/>
<path d="M180.135 129.499L176.33 129.926L180.781 89.9212C180.781 89.9212 185.863 88.9436 185.999 89.3356C186.082 89.5697 180.171 129.243 180.135 129.499Z" fill="#3F3D56"/>
<path d="M130.549 76.4345L130.446 94.6779L160.843 106.984L171.758 91.405L130.549 76.4345Z" fill="#3F3D56"/>
<path d="M198.034 87.9854C197.779 87.6461 197.437 87.3933 197.05 87.2582L158.267 73.5328C158.158 73.4939 158.046 73.4649 157.933 73.4462C157.809 73.4237 157.683 73.4137 157.558 73.4165L157.621 72.9988L158.009 72.7002L167.219 65.6155L197.975 75.6306L198.029 86.9583L198.034 87.9854Z" fill="#3F3D56"/>
<path d="M132.098 105.721C132.142 105.726 132.185 105.735 132.227 105.75L144.126 109.903C144.275 109.955 144.399 110.067 144.469 110.216C144.54 110.365 144.552 110.537 144.504 110.695C144.455 110.854 144.349 110.985 144.209 111.06C144.069 111.135 143.906 111.148 143.757 111.096L131.858 106.944C131.72 106.895 131.603 106.795 131.53 106.661C131.458 106.527 131.434 106.37 131.464 106.218C131.493 106.067 131.574 105.933 131.691 105.841C131.809 105.749 131.953 105.707 132.098 105.721Z" fill="white"/>
<path d="M180.11 182.252C182.722 182.252 184.839 180.003 184.839 177.227C184.839 174.452 182.722 172.202 180.11 172.202C177.498 172.202 175.38 174.452 175.38 177.227C175.38 180.003 177.498 182.252 180.11 182.252Z" fill="#F2F2F2"/>
<path d="M59.5119 200.677C62.1238 200.677 64.2412 198.427 64.2412 195.652C64.2412 192.877 62.1238 190.627 59.5119 190.627C56.9 190.627 54.7826 192.877 54.7826 195.652C54.7826 198.427 56.9 200.677 59.5119 200.677Z" fill="#F2F2F2"/>
<path d="M158.039 34.4358C160.651 34.4358 162.769 32.186 162.769 29.4108C162.769 26.6357 160.651 24.3859 158.039 24.3859C155.427 24.3859 153.31 26.6357 153.31 29.4108C153.31 32.186 155.427 34.4358 158.039 34.4358Z" fill="#F2F2F2"/>
<path d="M165.799 113.112C165.186 113.395 164.522 113.531 163.854 113.512C163.186 113.493 162.53 113.318 161.932 113.001C161.334 112.683 160.81 112.23 160.394 111.673C159.979 111.117 159.684 110.471 159.53 109.78L143.366 108.045L148.699 101.091L163.23 103.805C164.34 103.606 165.479 103.846 166.433 104.48C167.387 105.115 168.089 106.099 168.405 107.246C168.722 108.393 168.631 109.624 168.151 110.705C167.671 111.786 166.834 112.642 165.799 113.112Z" fill="#FFB8B8"/>
<path d="M155.857 110.353L118.138 106.66L118.086 106.597L90.5571 73.0825C88.7454 70.1334 88.0633 66.56 88.6504 63.094C89.2375 59.6279 91.0494 56.5315 93.7152 54.4386C95.1902 53.2835 96.8786 52.4734 98.6695 52.0617C100.46 51.65 102.313 51.6459 104.105 52.0497C105.898 52.4536 107.59 53.2562 109.069 54.4048C110.548 55.5533 111.782 57.0218 112.689 58.7135L129.645 90.3473L156.273 101.715L155.857 110.353Z" fill="#E6E6E6"/>
<path d="M250.532 45.9013C249.595 38.601 248.42 30.763 243.574 25.493C242.037 23.8209 240.196 22.4969 238.164 21.6009C236.132 20.7049 233.95 20.2555 231.749 20.2797C229.549 20.3039 227.376 20.8012 225.362 21.7417C223.348 22.6822 221.533 24.0464 220.029 25.752C216.501 29.7505 214.943 35.365 214.801 40.8434C214.658 46.3219 215.806 51.7395 217.08 57.0503C223.822 57.1933 230.514 55.7939 236.701 52.9468C238.249 52.2333 239.771 51.4266 241.406 50.9845C243.041 50.5424 244.206 51.6548 245.726 52.4305L246.561 50.7323C247.244 52.0834 249.36 51.6829 250.128 50.3838C250.895 49.0847 250.727 47.421 250.532 45.9013Z" fill="#2F2E41"/>
<path d="M223.809 86.6487L196.27 87.2745C195.847 86.4977 195.221 85.8683 194.467 85.4628C193.714 85.0573 192.866 84.8933 192.026 84.9906C191.187 85.0879 190.392 85.4423 189.738 86.0109C189.085 86.5794 188.601 87.3374 188.346 88.1928C188.09 89.0481 188.075 89.9639 188.3 90.8286C188.526 91.6933 188.983 92.4698 189.616 93.0635C190.25 93.6571 191.032 94.0424 191.867 94.1725C192.703 94.3025 193.556 94.1717 194.323 93.7959C197.975 94.0165 226.55 98.3256 228.255 95.5485C229.985 92.73 239.221 82.7827 239.221 82.7827L232.122 72.0445L223.809 86.6487Z" fill="#9E616A"/>
<path d="M230.519 53.1241C237.665 53.1241 243.458 46.9691 243.458 39.3767C243.458 31.7842 237.665 25.6293 230.519 25.6293C223.373 25.6293 217.581 31.7842 217.581 39.3767C217.581 46.9691 223.373 53.1241 230.519 53.1241Z" fill="#9E616A"/>
<path d="M251.243 65.8281C249.718 62.6038 248.977 58.6206 245.726 57.5754C243.531 56.8695 234.653 57.9273 232.653 59.1188C229.325 61.1008 232.34 64.8147 230.377 68.2902C228.243 72.0684 222.443 79.6506 220.309 83.4288C218.842 86.0261 223.784 93.6501 222.99 96.5597C222.197 99.4694 222.159 102.735 223.51 105.402C224.72 107.79 222.97 109.902 224.186 112.285C225.451 114.764 227.004 124.032 225.826 126.559L225.038 129.072C232.86 129.56 239.437 119.632 247.21 118.586C249.141 118.326 251.145 117.987 252.736 116.796C255.08 115.042 256.006 111.859 256.585 108.876C259.372 94.2953 257.492 79.143 251.243 65.8281Z" fill="#3F3D56"/>
<path d="M262.97 99.8726C261.88 96.7129 259.908 82.8982 259.908 82.8982L247.563 82.5136L253.598 98.3304L237.128 122.828C237.128 122.828 237.159 122.882 237.214 122.978C236.348 122.83 235.461 122.964 234.667 123.361C233.874 123.758 233.212 124.401 232.768 125.204C232.324 126.008 232.119 126.935 232.179 127.865C232.239 128.794 232.562 129.683 233.105 130.415C233.648 131.146 234.387 131.686 235.224 131.964C236.061 132.242 236.958 132.246 237.796 131.974C238.635 131.701 239.377 131.167 239.925 130.439C240.473 129.711 240.801 128.825 240.867 127.896C240.928 127.933 240.999 127.946 241.068 127.934C241.137 127.921 241.199 127.883 241.245 127.827C243.078 125.384 264.059 103.032 262.97 99.8726Z" fill="#9E616A"/>
<path d="M264.225 91.1481C263.092 86.0667 261.95 80.9577 260.04 76.1463C258.129 71.3349 255.395 66.7904 251.548 63.5398C250.318 62.5006 248.943 61.5833 247.402 61.2603C245.86 60.9371 244.123 61.2987 243.04 62.5087C241.308 64.4448 241.829 67.5525 242.464 70.1373C244.338 77.7586 246.212 85.3799 248.085 93.0012C253.496 92.3918 258.907 91.7824 264.318 91.173L264.225 91.1481Z" fill="#3F3D56"/>
<path d="M246.373 41.2835C245.897 37.9578 245.399 34.6043 244.28 31.4729C243.16 28.3414 241.356 25.4084 238.768 23.6345C234.669 20.826 229.363 21.3676 224.768 22.9832C221.215 24.2326 217.746 26.1316 215.241 29.1845C212.735 32.2374 211.327 36.5936 212.259 40.5855C217.161 39.3551 222.062 38.1247 226.963 36.8943L226.427 37.2971C228.036 38.1498 229.441 39.3807 230.536 40.8966C231.631 42.4125 232.386 44.1735 232.745 46.0458C233.095 47.9409 233.045 49.8951 232.597 51.767C232.15 53.6389 231.316 55.3817 230.157 56.8694C233.5 55.6095 236.842 54.3496 240.185 53.0897C242.248 52.312 244.457 51.416 245.68 49.4213C247.099 47.1086 246.769 44.0434 246.373 41.2835Z" fill="#2F2E41"/>
</g>
<defs>
<clipPath id="clip0_57_115">
<rect width="340" height="270" fill="white"/>
</clipPath>
</defs>
</svg>
