<svg width="373" height="216" viewBox="0 0 373 216" fill="none" xmlns="http://www.w3.org/2000/svg">
<path d="M143.487 139.281H157.73H165.868H181.658H185.32H191.912H207.295H221.782H271.265H309.274V116.99V93.5593C310.413 94.0475 311.39 94.9424 312.122 96.7322H314.564V144.814H62.75V0H314.645V52.3932C313.099 51.5797 311.308 50.9288 309.274 50.522V5.5322H191.994H185.401H68.1216V63.4576V68.0136V94.5356V139.281H71.7027H143.487Z" fill="#5F6B87"/>
<path d="M314.645 52.3933V96.651H312.203C311.471 94.8611 310.494 93.9662 309.354 93.4781V60.9357V50.6035C311.389 50.9289 313.098 51.6611 314.645 52.3933Z" fill="#5F6B87"/>
<path d="M309.356 116.99V139.281H271.348C270.778 137.98 270.615 136.19 271.104 135.295C272.813 132.203 276.964 134.4 278.998 132.61C280.87 130.983 279.161 129.844 278.754 128.136C278.184 125.858 280.87 125.044 282.661 124.8C285.346 124.393 286.649 124.231 287.218 121.22C287.544 119.593 287.137 117.478 288.439 116.095C290.881 113.492 294.136 115.119 296.659 116.502C298.287 117.397 299.833 118.942 301.787 118.21C303.821 117.397 307.484 114.061 309.356 116.99Z" fill="#DAE4F1"/>
<path d="M309.356 60.9355V93.5593C307.159 92.6644 304.391 93.2338 301.706 92.0135C296.578 89.7355 295.113 84.0406 291.451 80.1355C290.474 79.1593 289.416 78.2644 288.195 77.5322V60.9355H309.356Z" fill="#F9FBFC"/>
<path d="M309.355 50.6035V60.9357H288.195V77.5323C283.23 74.6848 276.8 74.8475 273.301 80.0543C269.882 85.2611 269.475 90.4679 261.337 86.6442C261.174 86.5628 261.092 86.4814 260.93 86.4814V46.1289C270.045 52.6374 273.301 62.3187 273.626 63.295C273.382 57.8442 277.044 53.1255 281.846 52.312C285.672 51.6611 289.66 53.5323 292.02 56.9492C292.834 55.973 297.473 50.7662 305.205 50.3594C306.751 50.2781 308.053 50.3594 309.355 50.6035Z" fill="#DAE4F1"/>
<path d="M309.355 5.53223V50.6034C308.134 50.3594 306.751 50.278 305.286 50.3594C297.554 50.7661 292.915 55.9729 292.101 56.9492C289.741 53.4509 285.753 51.5797 281.928 52.3119C277.126 53.1255 273.382 57.8441 273.707 63.2949C273.382 62.3187 270.045 52.556 261.011 46.1288V30.0204H207.458V47.4305C205.26 47.1865 202.981 47.3492 200.784 48.0814C196.877 49.4644 193.703 52.3932 191.994 56.0543V5.53223H309.355Z" fill="#F9FBFC"/>
<path d="M215.678 108.041H228.781C226.909 108.773 225.119 109.749 224.061 111.295C223.247 112.515 222.921 113.654 222.84 114.874H215.678V108.041Z" fill="#F8833E"/>
<path d="M215.678 125.451H224.386C223.979 127.973 222.107 129.926 221.294 132.366H215.678V125.451Z" fill="#F8833E"/>
<path d="M207.376 81.0303H191.994V139.362H207.376V81.0303Z" fill="#AFBED3"/>
<path d="M207.376 47.4304V80.949H191.994V56.1355C193.703 52.4745 196.796 49.5456 200.784 48.1626C202.982 47.4304 205.179 47.1863 207.376 47.4304Z" fill="#DAE4F1"/>
<path d="M191.995 81.0303H185.402V139.362H191.995V81.0303Z" fill="#5F6B87"/>
<path d="M185.402 49.3831V5.53223H191.995V56.1356V81.0305H185.402V49.3831Z" fill="#5F6B87"/>
<path d="M185.402 81.0303V139.281H181.739V89.4913H165.95V81.0303H185.402Z" fill="#AFBED3"/>
<path d="M185.402 49.383V81.0305H165.95V57.1118H133.883V52.0678H109.141V57.1118H92.2942V91.1186C92.1315 90.9559 91.9687 90.8746 91.8873 90.7118C90.6665 89.5729 89.527 88.7593 88.3876 88.1898V68.0135H68.1221V63.4576C70.8079 62.8881 73.7378 62.9695 76.505 63.783C77.5631 51.5796 84.8066 40.922 95.4684 36.2847C108.735 30.5084 125.175 34.8203 134.779 47.2678C135.837 43.7695 138.441 41.0034 141.697 40.3525C146.254 39.4576 151.626 42.9559 153.009 48.8949C158.625 42.7932 167.008 40.1898 174.74 42.3051C178.891 43.5254 182.635 46.0474 185.402 49.383Z" fill="#DAE4F1"/>
<path d="M185.401 5.53223V49.3831C182.634 46.0475 178.89 43.5254 174.658 42.3865C166.926 40.2712 158.543 42.8746 152.927 48.9763C151.625 43.0373 146.254 39.539 141.615 40.4339C138.44 41.0848 135.836 43.7695 134.697 47.3492C125.011 34.9017 108.653 30.5085 95.3863 36.3661C84.7245 41.0034 77.481 51.661 76.423 63.8644C73.6558 63.0509 70.8072 62.9695 68.04 63.539V5.53223H185.401Z" fill="#F9FBFC"/>
<path d="M181.739 89.4915H165.95V139.363H181.739V89.4915Z" fill="#DAE4F1"/>
<path d="M165.95 89.4915V139.363H157.811C157.486 137.654 155.37 136.434 153.498 135.539H157.811V129.193H151.382V134.563H151.3C146.58 131.959 147.801 128.054 147.963 123.742C148.208 118.617 144.789 116.42 140.72 115.281C140.72 114.224 140.72 113.329 140.72 113.329H134.372C134.372 113.329 134.372 113.654 134.372 114.142C134.127 114.142 133.802 114.061 133.558 114.061C126.884 113.329 130.384 109.505 128.512 105.519C127.616 103.485 125.582 102.997 123.791 102.427V97.4644C123.791 97.4644 121.431 97.4644 119.64 97.4644C119.315 94.9423 119.64 92.4203 116.71 90.5491C110.769 86.8881 106.049 90.1423 100.758 92.6644C97.0146 94.4542 95.0613 93.6406 92.2941 91.1186V57.1118H109.141H133.883H165.95V81.0305V89.4915ZM157.73 119.675V113.329H151.382V119.675H157.73ZM157.73 103.81V97.4644H151.382V103.81H157.73ZM157.73 87.9457V81.6H151.382V87.9457H157.73ZM157.73 72.0813V65.7355H151.382V72.0813H157.73ZM140.801 103.81V97.4644H134.453V103.81H140.801ZM140.801 87.9457V81.6H134.453V87.9457H140.801ZM140.801 72.0813V65.7355H134.453V72.0813H140.801ZM123.791 87.9457V81.6H117.443V87.9457H123.791ZM123.791 72.0813V65.7355H117.443V72.0813H123.791ZM106.863 87.9457V81.6H100.514V87.9457H106.863ZM106.863 72.0813V65.7355H100.514V72.0813H106.863Z" fill="#F9FBFC"/>
<path d="M123.791 102.346C125.663 102.996 127.616 103.403 128.511 105.437C130.302 109.423 126.802 113.166 133.557 113.979C133.801 113.979 134.127 114.061 134.371 114.061C136.406 114.305 138.685 114.549 140.719 115.118C144.789 116.257 148.126 118.373 147.963 123.579C147.8 127.891 146.498 131.715 151.3 134.4C151.3 134.4 151.3 134.4 151.381 134.4V135.376H153.497C155.369 136.271 157.485 137.491 157.811 139.2H143.568C141.777 138.468 141.533 136.434 141.452 134.4C141.208 130.413 137.871 131.308 135.104 130.169C132.174 128.949 132.662 124.23 130.302 122.196C127.046 119.512 123.384 120.976 121.43 124.068C119.558 126.915 118.5 123.905 116.059 124.312C114.431 124.556 113.454 125.044 112.559 126.346C110.931 128.624 109.792 128.379 107.269 126.59C104.583 124.718 103.037 122.034 99.8626 120.813C96.9327 119.756 92.8633 119.756 90.6658 122.278C89.0381 124.23 89.6078 126.671 88.5497 128.786C87.2475 131.552 85.2128 129.844 83.0967 129.356C81.0621 128.868 78.3763 129.356 77.6438 131.715C77.1554 133.261 78.0507 134.888 76.3416 135.864C75.1208 136.596 73.4116 136.352 72.5163 137.491C72.1908 137.979 71.9466 138.549 71.8652 139.2H68.2842V94.454C71.9466 95.9998 77.0741 91.1998 79.8412 89.3286C83.0967 87.0506 85.7825 86.8065 88.5497 88.1082C89.6892 88.6777 90.8286 89.4913 92.0494 90.6303C92.2122 90.793 92.375 90.8743 92.4563 91.037C95.2235 93.4777 97.0954 94.3726 100.921 92.5828C106.211 90.0608 111.013 86.8065 116.873 90.4676C119.884 92.3387 119.477 94.8608 119.803 97.3828C119.884 98.2777 120.128 99.1726 120.617 99.9862C121.186 101.369 122.488 101.939 123.791 102.346Z" fill="#AFBED3"/>
<path d="M157.73 129.112V135.458H153.417C152.603 135.051 151.87 134.725 151.301 134.481V129.112H157.73Z" fill="#F8833E"/>
<path d="M157.73 113.248H151.382V119.593H157.73V113.248Z" fill="#F8833E"/>
<path d="M157.73 97.4644H151.382V103.81H157.73V97.4644Z" fill="#F8833E"/>
<path d="M157.73 81.6001H151.382V87.9459H157.73V81.6001Z" fill="#F8833E"/>
<path d="M157.73 65.7358H151.382V72.0816H157.73V65.7358Z" fill="#F8833E"/>
<path d="M143.487 139.281H71.7031C71.7031 138.712 71.9473 138.061 72.3542 137.573C73.3309 136.352 74.9586 136.597 76.1794 135.946C77.8886 134.969 76.9933 133.342 77.4816 131.797C78.2141 129.519 80.8999 128.949 82.9346 129.437C85.1321 129.925 87.1668 131.634 88.3876 128.868C89.3642 126.752 88.8759 124.23 90.5037 122.359C92.7011 119.756 96.7705 119.756 99.7005 120.895C102.875 122.115 104.421 124.8 107.107 126.671C109.63 128.461 110.769 128.705 112.397 126.427C113.374 125.125 114.269 124.637 115.897 124.393C118.338 124.068 119.396 126.997 121.268 124.149C123.222 121.139 126.884 119.593 130.14 122.278C132.581 124.23 132.011 129.03 134.941 130.251C137.709 131.39 141.045 130.413 141.29 134.481C141.534 136.597 141.697 138.549 143.487 139.281Z" fill="#DAE4F1"/>
<path d="M140.802 113.248C140.802 113.248 140.802 114.061 140.802 115.2C138.767 114.631 136.488 114.387 134.453 114.142C134.453 113.654 134.453 113.329 134.453 113.329H140.802V113.248Z" fill="#F8833E"/>
<path d="M140.72 97.4644H134.372V103.81H140.72V97.4644Z" fill="#F8833E"/>
<path d="M140.72 81.6001H134.372V87.9459H140.72V81.6001Z" fill="#F8833E"/>
<path d="M140.72 65.7358H134.372V72.0816H140.72V65.7358Z" fill="#F8833E"/>
<path d="M133.884 52.0679H109.142V57.1119H133.884V52.0679Z" fill="#AFBED3"/>
<path d="M123.791 97.4644V102.427C122.407 102.02 121.186 101.451 120.372 100.149C119.884 99.3355 119.721 98.4406 119.559 97.5457C121.431 97.4644 123.791 97.4644 123.791 97.4644Z" fill="#F8833E"/>
<path d="M123.792 81.6001H117.443V87.9459H123.792V81.6001Z" fill="#F8833E"/>
<path d="M123.792 65.7358H117.443V72.0816H123.792V65.7358Z" fill="#F8833E"/>
<path d="M106.863 81.6001H100.515V87.9459H106.863V81.6001Z" fill="#F8833E"/>
<path d="M106.863 65.7358H100.515V72.0816H106.863V65.7358Z" fill="#F8833E"/>
<path d="M88.3056 68.0137V88.19C85.6198 86.8883 82.8526 87.1323 79.5971 89.4103C76.9113 91.2815 71.7839 96.0815 68.04 94.5357V68.0137H88.3056Z" fill="#F9FBFC"/>
<path d="M276.555 69.5596H257.755V104.38H276.555V69.5596Z" fill="#F9FBFC"/>
<path d="M265.813 38.644H247.013V73.4644H265.813V38.644Z" fill="#F9FBFC"/>
<path d="M228.782 108.041C232.607 106.576 237.165 105.844 238.386 102.427C238.955 100.881 239.037 99.2543 238.955 97.5458C238.874 95.1865 238.548 92.9085 239.037 90.6305C239.362 88.8407 240.176 87.2136 241.967 85.7492C247.989 80.7865 255.07 83.6339 261.011 86.4C261.174 86.4814 261.256 86.5627 261.418 86.5627C269.557 90.3865 269.883 85.1797 273.382 79.9729C276.882 74.7661 283.312 74.6034 288.276 77.4509C289.497 78.1831 290.555 78.9966 291.532 80.0543C295.194 83.9594 296.659 89.7356 301.787 91.9322C304.473 93.1526 307.24 92.5017 309.437 93.478V116.909C307.565 113.98 303.903 117.315 301.868 118.129C299.915 118.861 298.368 117.397 296.741 116.42C294.218 115.037 290.962 113.41 288.521 116.014C287.218 117.397 287.625 119.512 287.3 121.139C286.73 124.149 285.428 124.393 282.742 124.719C280.951 124.963 278.266 125.776 278.835 128.054C279.242 129.844 280.951 130.902 279.08 132.529C277.045 134.319 272.894 132.122 271.185 135.214C270.697 136.109 270.941 137.898 271.429 139.2H221.945C221.05 137.573 220.806 135.295 220.969 133.831C221.05 133.261 221.131 132.692 221.376 132.203C222.19 129.844 224.061 127.81 224.468 125.288C224.55 124.963 224.55 124.637 224.55 124.312C224.631 121.058 222.759 117.966 222.922 114.793C223.003 113.573 223.329 112.434 224.143 111.214C225.119 109.749 226.91 108.854 228.782 108.041Z" fill="#AFBED3"/>
<path d="M207.377 47.4304V30.0203H260.93V46.0474V86.3999C254.989 83.6338 247.908 80.7864 241.885 85.7491C240.095 87.2135 239.281 88.922 238.955 90.6304H215.678V97.5457H238.955C239.037 99.1728 238.955 100.881 238.386 102.427C237.165 105.844 232.607 106.495 228.782 108.041H215.678V114.956H222.841C222.678 118.129 224.55 121.22 224.468 124.475C224.468 124.8 224.468 125.125 224.387 125.451H215.678V132.366H221.294C221.05 132.854 220.969 133.424 220.887 133.993C220.725 135.458 221.05 137.736 221.864 139.363H207.377V81.0304V47.4304ZM254.826 80.2169V73.383H215.678V80.2169H254.826ZM254.826 62.8881V55.9728H215.678V62.8881H254.826ZM254.826 45.5592V38.644H215.678V45.5592H254.826Z" fill="#DAE4F1"/>
<path d="M254.907 73.3833H215.678V80.2172H254.907V73.3833Z" fill="#F8833E"/>
<path d="M254.907 56.0542H215.678V62.9694H254.907V56.0542Z" fill="#F8833E"/>
<path d="M215.678 90.7122H239.036C238.629 92.9088 238.955 95.2681 238.955 97.6274H215.678V90.7122Z" fill="#F8833E"/>
<path d="M254.907 38.644H215.678V45.5593H254.907V38.644Z" fill="#F8833E"/>
<path d="M169.206 57.1118H165.95V139.363H169.206V57.1118Z" fill="#AFBED3"/>
<path d="M207.377 30.0203H204.121V112.271H207.377V30.0203Z" fill="#AFBED3"/>
<path d="M288.195 60.9355H284.939V104.38H288.195V60.9355Z" fill="#AFBED3"/>
<path d="M90.6669 68.0137H88.3066V115.688H90.6669V68.0137Z" fill="#AFBED3"/>
<path d="M367.466 216H10.0109C6.91813 216 4.4765 213.478 4.4765 210.468V208.271C4.4765 205.18 6.99952 202.739 10.0109 202.739H367.466C370.559 202.739 373 205.261 373 208.271V210.468C373 213.478 370.559 216 367.466 216Z" fill="#DAE4F1"/>
<path d="M49.5657 167.349C49.5657 167.349 48.9959 168.976 48.4262 171.01C47.8565 173.044 47.2054 175.485 47.124 177.193L48.1007 177.275C48.1821 175.729 48.8332 173.288 49.4029 171.254C49.7284 170.278 49.9726 169.383 50.1354 168.651C50.2981 167.919 50.4609 167.593 50.4609 167.593L49.5657 167.349Z" fill="#333333"/>
<path d="M40.8563 168.163C40.8563 168.163 40.8563 168.326 40.9376 168.651C41.019 169.546 41.1818 171.661 41.1818 173.939C41.1818 174.997 41.1818 176.136 41.019 177.112L41.9957 177.193C42.0771 176.136 42.1585 174.997 42.1585 173.858C42.1585 170.766 41.8329 168 41.8329 168L40.8563 168.163Z" fill="#333333"/>
<path d="M36.0547 174.672C36.0547 174.753 36.2989 174.916 36.4616 175.322C36.6244 175.648 36.7872 176.055 36.7872 176.461H37.7638C37.7638 175.729 37.5197 175.16 37.2755 174.753C37.0313 174.346 36.7872 174.021 36.7872 174.021L36.0547 174.672Z" fill="#333333"/>
<path d="M48.4262 168.325C48.4262 168.325 43.3802 161.98 51.112 148.8C58.8438 135.62 74.7144 132.447 75.4469 134.156C76.1794 135.864 67.3896 139.2 64.9479 149.288C62.5063 159.458 62.1807 165.071 59.088 168.081C56.0766 171.173 51.9259 172.393 48.4262 168.325Z" fill="#3F4B66"/>
<path d="M38.09 169.627C38.09 169.627 37.5203 162.468 24.5796 158.482C11.7203 154.577 -0.569203 161.98 0.000511445 163.526C0.570226 165.072 8.22067 161.98 15.9525 167.105C23.603 172.231 27.184 175.729 31.0092 175.892C34.8345 176.055 38.2528 174.346 38.09 169.627Z" fill="#3F4B66"/>
<path d="M45.9032 164.99C45.9032 164.99 54.5303 155.715 44.5196 140.909C34.5089 126.102 12.4528 125.044 11.7203 127.078C10.9879 129.112 20.3475 133.017 24.0099 144.651C27.6723 156.285 29.6257 162.143 33.4509 165.478C37.1947 168.814 42.1594 169.953 45.9032 164.99Z" fill="#3F4B66"/>
<path d="M50.4608 166.373C50.3794 166.373 50.3794 166.373 50.298 166.373C50.0539 166.292 49.8911 166.048 49.9725 165.804C50.2166 164.99 55.5882 145.953 65.5175 138.712C65.7617 138.549 66.0059 138.631 66.1686 138.793C66.3314 139.037 66.25 139.281 66.0872 139.444C56.4835 146.522 51.0305 165.804 50.9491 166.048C50.8677 166.292 50.705 166.373 50.4608 166.373Z" fill="#F9FBFC"/>
<path d="M40.4503 164.014C40.2061 164.014 40.0434 163.851 39.962 163.688C39.962 163.607 39.962 163.526 39.8806 163.119C39.4736 156.448 36.6251 134.237 18.7198 129.519C18.4756 129.437 18.3128 129.193 18.3942 128.949C18.4756 128.705 18.7198 128.543 18.9639 128.624C37.5203 133.505 40.4503 156.204 40.9386 163.119C40.9386 163.282 40.9386 163.444 40.9386 163.444C41.02 163.688 40.8572 163.932 40.6131 164.014C40.5317 164.014 40.5317 164.014 40.4503 164.014Z" fill="#F9FBFC"/>
<path d="M34.4281 172.882C34.1839 172.882 34.0211 172.719 33.2886 172.068C25.2312 164.827 17.4994 161.329 10.2559 161.817C10.0117 161.817 9.76758 161.655 9.76758 161.329C9.76758 161.085 9.93035 160.841 10.2559 160.841C17.7436 160.353 25.801 163.851 34.0211 171.336C34.3467 171.58 34.5908 171.824 34.7536 171.987C34.9164 172.068 34.9978 172.149 35.0792 172.312C35.1605 172.556 34.9978 172.882 34.7536 172.963C34.5908 172.882 34.5094 172.882 34.4281 172.882Z" fill="#F9FBFC"/>
<path d="M54.449 205.994H29.2188C28.5677 205.994 27.998 205.587 27.9166 204.936L21.7312 178.089C21.5684 177.275 22.2195 176.38 23.0334 176.38H60.6345C61.5298 176.38 62.1809 177.194 61.9367 178.089L55.7512 204.936C55.5885 205.506 55.1001 205.994 54.449 205.994Z" fill="#AFBED3"/>
<path d="M106.13 142.617V162.142H79.7607L114.757 106.576L102.224 105.925C97.0149 105.681 92.1317 108.203 89.3645 112.597L57.786 159.946C56.0769 162.468 55.1816 165.478 55.1816 168.569V180.691H106.13V207.864H124.687V142.617H106.13Z" fill="#F8833E"/>
<path d="M257.919 142.617V162.142H231.549L266.546 106.576L254.012 105.925C248.803 105.681 243.92 108.203 241.153 112.597L209.574 160.027C207.865 162.549 206.97 165.559 206.97 168.651V180.773H257.919V207.946H276.475V142.698H257.919V142.617Z" fill="#F8833E"/>
<path d="M170.427 206.563H163.997C147.72 206.563 134.453 193.302 134.453 177.03V133.912C134.453 117.641 147.72 104.38 163.997 104.38H170.427C186.704 104.38 199.97 117.641 199.97 133.912V177.03C199.97 193.302 186.704 206.563 170.427 206.563ZM163.997 122.929C157.974 122.929 153.01 127.81 153.01 133.912V177.03C153.01 183.051 157.893 188.014 163.997 188.014H170.427C176.449 188.014 181.414 183.132 181.414 177.03V133.912C181.414 127.892 176.531 122.929 170.427 122.929H163.997Z" fill="#F8833E"/>
<path d="M291.044 88.678C292.427 88.678 293.566 89.817 293.566 91.2C293.566 92.5831 292.427 93.722 291.044 93.722C289.66 93.722 288.521 92.5831 288.521 91.2C288.602 89.817 289.66 88.678 291.044 88.678Z" fill="#F8833E"/>
<path d="M292.02 72.4067C296.171 72.4067 298.287 74.6847 298.287 77.2067C298.287 82.0067 292.997 81.6 292.997 85.0169V85.9118H289.172V84.8542C289.172 79.8101 293.973 80.1355 293.973 77.5322C293.973 76.3118 293.078 75.661 291.695 75.661C290.392 75.661 289.172 76.2305 288.114 77.5322L285.428 75.4169C286.974 73.5457 289.09 72.4067 292.02 72.4067Z" fill="#F8833E"/>
<path d="M353.223 199.241C353.468 199.81 349.398 206.888 348.666 207.457C348.015 208.027 342.48 208.434 342.317 207.62C342.155 206.807 345.492 205.017 345.492 205.017L346.143 201.356L349.886 196.719C351.84 198.102 353.142 199.078 353.223 199.241Z" fill="#3F4B66"/>
<path d="M309.682 204.203C310.821 206.644 311.554 208.271 311.472 208.434C310.902 209.329 296.578 210.793 296.334 209.247C296.09 207.701 303.415 204.691 303.415 204.691C303.415 204.691 306.101 205.749 309.682 204.203Z" fill="#3F4B66"/>
<path d="M254.175 131.471C249.535 143.268 238.06 151.566 224.631 151.566C207.132 151.566 192.89 137.329 192.89 119.837C192.89 102.346 207.132 88.1086 224.631 88.1086C242.129 88.1086 256.372 102.346 256.372 119.837C256.372 122.197 256.128 124.475 255.64 126.671L254.907 129.519C254.663 130.17 254.419 130.82 254.175 131.471ZM249.536 119.756C249.536 106.007 238.385 94.8612 224.712 94.8612C210.958 94.8612 199.808 106.007 199.808 119.756C199.808 133.505 210.958 144.651 224.712 144.651C238.385 144.651 249.536 133.505 249.536 119.756Z" fill="#5F6B87"/>
<path d="M285.59 131.715L289.416 132.447H289.578L291.369 132.854L290.392 138.712L288.358 138.305L268.743 134.4C268.173 134.156 267.604 133.83 267.441 133.261C267.278 132.447 265.081 131.797 264.104 131.553C263.941 131.553 263.86 131.471 263.778 131.471C263.29 131.471 262.232 131.797 262.965 133.18L254.012 131.308C254.256 130.658 254.5 130.007 254.744 129.356C254.989 128.542 255.233 127.647 255.477 126.834C255.477 126.753 255.558 126.59 255.558 126.508L255.802 125.614L276.394 129.763L285.59 131.715Z" fill="#5F6B87"/>
<path d="M314.814 164.399C314.814 164.399 324.666 159.113 327.392 151.962C325.105 163.525 315.323 172.419 315.323 172.419C314.959 167.983 314.814 164.489 314.814 164.399Z" fill="#47458D"/>
<path d="M360.06 144.488L357.782 154.332L329.784 148.23L327.668 147.742L302.682 142.373L290.393 139.688L290.555 138.712H290.637L291.532 132.854L291.776 131.308C291.858 131.308 291.858 131.227 291.939 131.227L297.962 132.366L321.401 136.922L323.924 137.41L342.237 140.908H342.318L342.644 140.99C343.376 141.152 344.76 141.641 345.329 142.698C346.225 144.163 344.434 147.498 345.329 147.336C349.643 146.359 349.399 143.268 349.236 142.291L360.06 144.488Z" fill="#3F4B66"/>
<path d="M349.887 196.637L346.143 201.275L345.654 201.6C345.085 201.763 319.447 188.339 317.576 185.166C316.517 183.458 315.785 177.275 315.297 172.231C315.297 172.231 324.819 162.468 327.017 153.275C327.179 152.787 327.342 152.298 327.423 151.81V151.892C328.726 166.617 325.145 173.288 327.098 177.681C328.481 181.017 343.131 191.675 349.887 196.637Z" fill="#56548C"/>
<path d="M349.073 142.291C349.236 143.268 349.48 146.359 345.166 147.335C344.352 147.498 346.062 144.162 345.166 142.698C344.515 141.64 343.132 141.152 342.48 140.99L342.155 140.908H342.074C341.992 140.908 341.992 140.908 341.992 140.908C341.992 140.827 342.806 139.851 342.806 139.851L343.62 139.444L346.631 137.735C348.015 140.339 348.91 142.047 348.91 142.047C348.91 142.047 348.992 142.129 349.073 142.291Z" fill="#FFC8AF"/>
<path d="M346.712 137.736L343.619 139.444C343.619 139.444 331.492 122.522 329.539 121.302C327.586 120.081 311.064 116.583 309.68 117.885C308.785 118.698 315.378 127.81 321.237 137.003L297.798 132.448C296.984 130.576 296.251 128.868 295.844 127.485C295.6 126.59 295.356 125.695 295.112 124.719C294.217 120.976 293.647 116.99 294.217 113.492C294.217 113.492 295.275 113.98 300.402 110.888C301.053 110.888 303.251 110.319 307.564 110.807C311.878 111.295 331.574 114.142 333.934 115.851C335.643 117.153 342.968 130.576 346.712 137.736Z" fill="#F8833E"/>
<path d="M343.62 139.444L342.806 139.851C342.806 139.851 333.283 126.752 329.784 124.393C326.284 122.034 318.389 120.163 312.204 119.919C312.204 119.919 318.552 128.868 323.761 137.41L321.238 136.922C315.378 127.729 308.786 118.617 309.681 117.803C311.064 116.502 327.668 120 329.539 121.22C331.493 122.522 343.62 139.444 343.62 139.444Z" fill="#FC7925" fill-opacity="0.6"/>
<path d="M330.761 151.892H329.296C328.889 150.671 328.319 149.369 327.587 147.824L329.703 148.312C330.354 149.776 330.761 151.078 330.761 151.892Z" fill="#FC7925" fill-opacity="0.6"/>
<path d="M329.296 151.892H327.342L309.844 151.566H308.053H307.321C307.321 151.566 305.123 147.498 302.6 142.536L327.586 147.905C328.319 149.288 328.889 150.671 329.296 151.892Z" fill="#F8833E"/>
<path d="M309.844 151.485L327.342 151.81C327.261 152.298 327.098 152.786 326.935 153.274C324.494 159.702 314.646 164.908 314.646 164.908C310.414 167.186 297.88 174.183 297.148 176.461C296.415 178.658 305.693 195.986 309.681 204.203C306.1 205.668 303.333 204.691 303.333 204.691C303.333 204.691 286.323 181.098 285.916 174.834C285.509 168.732 306.833 152.298 307.972 151.403L309.844 151.485Z" fill="#56548C"/>
<path d="M296.74 106.007C297.554 106.739 298.612 107.797 298.612 107.878C298.612 108.041 298.693 108.122 298.693 108.285C299.345 109.993 299.751 110.888 300.403 110.888C295.275 113.98 294.217 113.491 294.217 113.491L294.136 113.573C294.136 113.573 294.217 112.353 292.752 110.237C292.752 110.237 289.822 110.644 289.334 110.4C288.927 110.156 287.625 104.786 287.462 101.207C287.787 101.125 291.369 100.393 292.101 100.963C292.834 101.614 292.589 104.298 293.566 104.136C294.543 103.973 293.892 102.915 294.136 102.671C294.38 102.508 295.519 102.671 295.682 103.647C295.763 104.054 295.926 104.624 295.763 105.112H295.845C295.845 105.112 295.926 105.193 296.089 105.356C296.17 105.437 296.252 105.519 296.333 105.6C296.577 105.844 296.659 105.925 296.74 106.007Z" fill="#FFC8AF"/>
<path d="M298.043 98.1965C299.263 100.8 298.287 105.925 298.694 107.959C298.694 107.797 297.636 106.82 296.822 106.088C296.74 106.007 296.578 105.844 296.496 105.763C296.415 105.681 296.333 105.6 296.252 105.519C296.089 105.356 296.008 105.275 296.008 105.275H295.927C296.008 104.868 295.927 104.298 295.845 103.81C295.601 102.834 294.462 102.671 294.299 102.834C294.055 103.078 294.706 104.136 293.729 104.298C292.752 104.461 293.078 101.776 292.264 101.125C291.532 100.475 287.951 101.288 287.625 101.369C287.625 101.369 286.486 100.8 286.241 98.9288C286.241 98.9288 289.497 98.1965 291.287 97.7084C292.997 96.9762 296.74 95.4304 298.043 98.1965Z" fill="#333333"/>
<path d="M295.194 124.718C295.438 125.695 295.682 126.589 295.926 127.484C295.926 127.484 294.543 129.437 291.857 131.227H291.776V131.308C291.125 131.715 290.473 132.122 289.741 132.447H289.578L285.753 131.715C290.066 130.169 295.194 124.718 295.194 124.718Z" fill="#FC7925" fill-opacity="0.6"/>
<path d="M294.217 113.573L294.298 113.491C293.729 116.99 294.298 120.976 295.194 124.719C295.194 124.719 290.066 130.169 285.671 131.715L276.556 129.925C279.811 129.356 283.881 128.38 285.427 127.078C288.031 124.8 292.101 119.024 294.217 113.573Z" fill="#F8833E"/>
<path d="M268.824 134.4C269.231 134.563 269.638 134.644 269.638 134.644C269.638 134.644 265.487 136.108 263.697 134.156C263.452 133.83 263.208 133.586 263.127 133.261C262.394 131.878 263.452 131.552 263.941 131.552C264.022 131.552 264.104 131.552 264.266 131.634C265.162 131.797 267.44 132.447 267.603 133.342C267.685 133.83 268.336 134.237 268.824 134.4Z" fill="#FFC8AF"/>
<path opacity="0.3" d="M247.827 119.756C247.827 106.983 237.409 96.5693 224.631 96.5693C211.853 96.5693 201.436 106.983 201.436 119.756C201.436 132.529 211.853 142.942 224.631 142.942C237.409 142.942 247.827 132.61 247.827 119.756Z" fill="#5F6B87"/>
<path d="M224.312 108.226C224.312 104.403 221.219 101.393 217.475 101.393C213.65 101.393 210.639 104.484 210.639 108.226C210.639 112.05 213.731 115.06 217.475 115.06C221.3 115.142 224.312 112.05 224.312 108.226Z" fill="#DAE4F1"/>
</svg>
